<svg width="12" height="12" viewBox="0 0 12 12" fill="none" xmlns="http://www.w3.org/2000/svg">
<path fill-rule="evenodd" clip-rule="evenodd" d="M6.00003 11.5C2.96246 11.5 0.500031 9.03755 0.500031 5.99998C0.500031 2.96242 2.96246 0.499985 6.00003 0.499985C9.0376 0.499985 11.5 2.96242 11.5 5.99998C11.5 9.03755 9.0376 11.5 6.00003 11.5ZM6 10.5C8.48528 10.5 10.5 8.48528 10.5 6C10.5 3.51472 8.48528 1.5 6 1.5C3.51472 1.5 1.5 3.51472 1.5 6C1.5 8.48528 3.51472 10.5 6 10.5ZM7.39534 7.39526L8.79062 3.20941L4.60477 4.60469L3.20948 8.79055L7.39534 7.39526ZM6.60479 6.60467L4.79064 7.20939L5.39536 5.39524L7.2095 4.79053L6.60479 6.60467Z" fill="#2CB049"/>
</svg>
