<svg width="70" height="70" viewBox="0 0 70 70" fill="none" xmlns="http://www.w3.org/2000/svg">
<path fill-rule="evenodd" clip-rule="evenodd" d="M7.05975 25.9891C2.17734 37.9635 6.70698 57.1708 12.8594 63.7737C17.4525 67.0858 26.2225 68.7277 34.9995 68.7277C43.7766 68.7277 52.5466 67.0716 57.1397 63.7737C63.2921 57.1708 67.7935 37.9635 62.9393 25.9891C62.643 31.304 58.071 36.8949 43.3391 38.3032C43.1306 40.3764 42.162 42.2981 40.6211 43.6956C39.0803 45.0931 37.0769 45.8669 34.9995 45.8669C32.9222 45.8669 30.9188 45.0931 29.3779 43.6956C27.8371 42.2981 26.8685 40.3764 26.6599 38.3032C11.928 36.8878 7.35608 31.304 7.05975 25.9891ZM27.2314 34.3259C7.82175 33.2502 7.9558 11.1201 16.8669 9.15977C19.6009 8.56839 22.3632 8.11723 25.143 7.80805C25.4492 6.57373 26.0278 5.42416 26.8362 4.44422C27.6447 3.46428 28.6622 2.679 29.8137 2.14637C31.4337 1.37283 33.2054 0.971436 34.9995 0.971436C36.7937 0.971436 38.5653 1.37283 40.1853 2.14637C41.3376 2.67685 42.3555 3.46156 43.1631 4.44192C43.9706 5.42228 44.5469 6.57296 44.849 7.80805C47.6313 8.11666 50.3959 8.56782 53.1322 9.15977C62.0433 11.1201 62.1491 33.2502 42.7677 34.3259C42.1386 32.7791 41.0644 31.4553 39.6821 30.5234C38.2998 29.5916 36.6721 29.0939 35.0066 29.0939C33.3411 29.0939 31.7134 29.5916 30.3311 30.5234C28.9488 31.4553 27.8746 32.7791 27.2455 34.3259H27.2314ZM29.2352 7.43296C33.0741 7.18526 36.925 7.18526 40.7639 7.43296C40.2339 6.5742 39.4667 5.88827 38.5555 5.45845C37.4397 4.94568 36.2269 4.68024 34.9995 4.68024C33.7722 4.68024 32.5593 4.94568 31.4436 5.45845C30.5324 5.88827 29.7652 6.5742 29.2352 7.43296ZM22.6383 15.7061L22.5677 16.4138C22.7457 15.9696 23.0278 15.5749 23.3901 15.2632C23.7524 14.9515 24.1843 14.732 24.6491 14.6233C24.8409 14.6081 25.0336 14.6339 25.2148 14.6989C25.3959 14.7639 25.5612 14.8667 25.6998 15.0004C25.8385 15.1341 25.9473 15.2958 26.0192 15.4747C26.091 15.6537 26.1242 15.8459 26.1167 16.0387C26.6529 15.0479 27.3373 14.2977 28.2333 14.1987C28.9389 14.1137 29.9619 14.4605 29.7714 16.3218L29.4257 19.9311C29.3834 20.384 29.6091 20.5468 29.9125 20.5114C30.5151 20.3835 31.0528 20.0449 31.4295 19.556C31.4295 19.3366 31.493 19.1031 31.5423 18.8483L32.2479 15.6919C32.3114 15.4442 32.2479 15.3098 32.0927 15.3098C31.9375 15.3098 31.9304 15.3664 31.7893 15.4938C31.7292 15.4406 31.6811 15.3753 31.6482 15.3021C31.6152 15.2289 31.5982 15.1495 31.5982 15.0691C31.5982 14.9888 31.6152 14.9094 31.6482 14.8362C31.6811 14.763 31.7292 14.6976 31.7893 14.6445C32.2669 14.2202 32.8737 13.9707 33.5108 13.9368C34.0612 13.9368 34.3857 14.1987 34.2164 14.7861L33.2639 19.2234C33.1581 19.7046 33.2639 20.0726 33.786 20.0726C34.0102 20.064 34.2304 20.0107 34.4339 19.916C34.6374 19.8212 34.8201 19.6868 34.9713 19.5206L36.0438 14.9134C36.1031 14.6207 36.2671 14.3598 36.505 14.1799C36.7428 14 37.038 13.9135 37.3349 13.9368C37.5849 13.9353 37.8301 14.0065 38.0405 14.142L36.7493 20.2425C36.6999 20.4619 36.6576 20.6742 36.6082 20.8724C37.357 20.5275 38.0666 20.1028 38.7248 19.6056L40.016 15.7627C40.1007 15.5292 40.016 15.3805 39.9031 15.3664C39.7902 15.3522 39.7267 15.4088 39.5786 15.515C39.5242 15.4557 39.4833 15.3854 39.4585 15.3088C39.4338 15.2322 39.4258 15.1511 39.4352 15.0712C39.4446 14.9912 39.4711 14.9142 39.5129 14.8455C39.5547 14.7767 39.6108 14.7178 39.6773 14.6728C40.1943 14.2902 40.8279 14.1 41.4694 14.135C42.0198 14.1987 42.309 14.4959 42.1044 15.0621L41.8716 15.7273C42.5772 14.8993 43.4379 14.3614 44.3058 14.4605C44.4978 14.488 44.6817 14.5567 44.8449 14.662C45.008 14.7673 45.1466 14.9067 45.2511 15.0706C45.3556 15.2346 45.4236 15.4192 45.4504 15.6119C45.4772 15.8047 45.4622 16.0009 45.4064 16.1873C46.1543 15.3381 46.9939 14.7719 47.8829 14.871C48.5884 14.9559 49.5057 15.5292 48.9059 17.2701L47.7488 20.7096C47.6077 21.1413 47.7488 21.3465 48.0946 21.3819C48.6987 21.3956 49.2883 21.1951 49.7597 20.8157C49.8315 20.8523 49.8907 20.9095 49.9297 20.9802C49.9687 21.0509 49.9857 21.1316 49.9784 21.2121C49.9582 21.3375 49.896 21.4524 49.802 21.5376C49.4178 21.9243 48.9599 22.2294 48.4556 22.4349C47.9514 22.6404 47.4111 22.742 46.8669 22.7336C46.1049 22.6416 45.3359 22.1675 45.9215 20.4194L46.9163 17.447C47.0927 16.9729 47.1562 16.5624 46.6552 16.4987C46.3944 16.4847 46.1336 16.5266 45.8902 16.6218C45.6469 16.717 45.4266 16.8633 45.2441 17.0507L43.8048 21.3819C43.7162 21.6736 43.5228 21.9219 43.2621 22.0788C43.0014 22.2357 42.692 22.29 42.3937 22.2312C42.1371 22.2033 41.8931 22.1054 41.6882 21.9481L43.3391 17.0507C43.5014 16.5695 43.579 16.159 43.071 16.1024C42.7899 16.0878 42.5091 16.1376 42.25 16.2479C41.9908 16.3583 41.7601 16.5263 41.5753 16.7393L40.1642 20.9856C40.07 21.2716 39.874 21.5128 39.6136 21.6629C39.3533 21.8131 39.0469 21.8617 38.7531 21.7995C38.4961 21.7782 38.251 21.6823 38.0475 21.5235L38.3368 20.66C37.7119 21.0816 37.0562 21.4554 36.3754 21.7782C35.6698 24.6445 34.5339 27.6805 31.7963 27.6805C31.5479 27.6836 31.3015 27.6359 31.0721 27.5402C30.8427 27.4446 30.6351 27.303 30.4621 27.1242C30.2891 26.9453 30.1542 26.733 30.0658 26.5001C29.9774 26.2672 29.9372 26.0187 29.9478 25.7697C29.9478 23.8094 32.0645 22.8893 34.5903 21.7428C34.6962 21.3748 34.7879 20.9927 34.9149 20.5751C34.6883 20.9272 34.3853 21.2234 34.0285 21.4415C33.6718 21.6597 33.2705 21.7941 32.8547 21.8348C32.6719 21.8455 32.489 21.8184 32.3172 21.7551C32.1453 21.6918 31.9884 21.5937 31.856 21.4669C31.7236 21.3401 31.6187 21.1873 31.5477 21.018C31.4768 20.8488 31.4413 20.6667 31.4436 20.4831C30.865 21.3164 29.9832 21.8882 28.9883 22.0755C28.2263 22.1675 27.3725 21.8773 27.5772 20.0373L27.8735 16.9163C27.937 16.4138 27.8735 15.9962 27.4008 16.0599C27.1456 16.1051 26.9032 16.205 26.6901 16.3528C26.477 16.5006 26.2983 16.6928 26.1661 16.9163L25.7357 21.481C25.7054 21.7774 25.5695 22.0529 25.3531 22.257C25.1367 22.461 24.8542 22.58 24.5574 22.5921C24.3047 22.627 24.0474 22.5876 23.8166 22.4789L24.3105 17.3338C24.3598 16.8313 24.3457 16.4138 23.8448 16.4704C23.5673 16.5196 23.3045 16.6311 23.076 16.7966C22.8476 16.962 22.6593 17.1771 22.5254 17.4258L22.1021 21.8985C22.0719 22.1957 21.9364 22.472 21.7201 22.6773C21.5038 22.8825 21.2212 23.003 20.9238 23.0167C20.6821 23.0404 20.4385 22.9989 20.2183 22.8964L20.7898 16.8738C20.825 16.619 20.7333 16.4916 20.5922 16.5058C20.4511 16.5199 20.437 16.5907 20.31 16.7252C20.2373 16.6839 20.1746 16.6268 20.1266 16.5583C20.0785 16.4897 20.0462 16.4113 20.0321 16.3287C20.0179 16.2461 20.0222 16.1613 20.0446 16.0806C20.067 15.9999 20.1071 15.9251 20.1618 15.8618C20.5829 15.373 21.158 15.0433 21.7916 14.9276C22.342 14.8639 22.6877 15.0904 22.6171 15.6849L22.6383 15.7061ZM31.8105 26.2863C31.6371 26.2671 31.477 26.1841 31.361 26.0534C31.245 25.9227 31.1815 25.7536 31.1825 25.5786C31.1825 24.4038 32.4384 23.6607 34.2728 22.7478C33.4826 25.2318 32.8617 26.2863 31.8105 26.2863ZM33.405 34.5948C33.405 36.2367 34.8584 37.8998 36.4318 39.1383C36.6098 38.6144 36.698 38.0641 36.6929 37.5106C36.6928 37.3046 36.6787 37.0989 36.6505 36.8949C36.5364 36.8934 36.4234 36.9174 36.3197 36.9651C36.2159 37.0128 36.1241 37.0831 36.0508 37.1709C35.5569 36.534 36.0931 35.7555 37.2291 35.7555C38.365 35.7555 39.1905 36.2084 40.0513 35.7555C40.5028 36.3429 39.9807 37.3054 39.0212 37.3054C38.4898 37.2559 37.9649 37.1515 37.4549 36.994C37.516 37.3113 37.549 37.6333 37.5536 37.9565C37.5601 38.5667 37.4671 39.1739 37.2785 39.754C38.0259 40.2973 38.8613 40.7067 39.7479 40.9642C39.7479 42.1886 39.0423 42.7689 38.5555 42.6061C37.7633 42.3044 37.0248 41.8767 36.3683 41.3393C35.994 41.7332 35.5441 42.0472 35.0458 42.2624C34.5475 42.4777 34.011 42.5898 33.4685 42.592C31.5 42.592 30.5475 41.2827 30.5475 39.9097C30.5491 39.2489 30.7656 38.6066 31.1642 38.0803C31.5627 37.5541 32.1216 37.1727 32.7559 36.994C32.3827 36.2583 32.1778 35.4483 32.1562 34.6231C32.1562 34.2969 32.2202 33.9739 32.3447 33.6725C32.4691 33.3712 32.6516 33.0973 32.8815 32.8667C33.1115 32.636 33.3845 32.453 33.6849 32.3282C33.9854 32.2033 34.3074 32.1391 34.6327 32.1391C36.0438 32.1391 36.7493 32.9317 36.7493 34.0499C36.7493 34.8708 36.4036 35.2884 35.6769 35.2884C35.5075 35.2773 35.3444 35.2201 35.2051 35.1228C35.0658 35.0255 34.9557 34.8919 34.8867 34.7364C35.0777 34.6358 35.2382 34.4855 35.3512 34.3012C35.4641 34.1168 35.5255 33.9053 35.5287 33.689C35.5254 33.577 35.4991 33.4668 35.4515 33.3655C35.4038 33.2641 35.3357 33.1738 35.2516 33.1C35.1675 33.0263 35.0691 32.9707 34.9626 32.9369C34.8561 32.9031 34.7438 32.8917 34.6327 32.9034C33.9271 32.9034 33.4121 33.413 33.4121 34.5948H33.405ZM33.7154 41.3393C33.4999 41.3474 33.2852 41.3092 33.0857 41.2271C32.8862 41.145 32.7065 41.021 32.5588 40.8634C32.411 40.7059 32.2986 40.5184 32.2292 40.3136C32.1598 40.1088 32.1349 39.8914 32.1562 39.6762C32.154 39.2913 32.2422 38.9112 32.4139 38.5669C32.5855 38.2226 32.8356 37.9238 33.1439 37.6946C33.7994 38.7691 34.6022 39.7458 35.5287 40.5962C35.0378 41.0577 34.3882 41.3112 33.7154 41.3039V41.3393ZM19.9502 48.7207L19.5409 49.6054C20.6557 48.5721 21.8693 47.9564 23.0687 48.1899C23.9153 48.3739 24.7126 49.2515 24.3246 50.7023C25.4676 49.6549 26.6952 48.9967 27.8523 49.2869C28.7766 49.4921 29.969 50.398 28.9106 52.7051L26.8716 57.2415C26.6105 57.8077 26.8293 58.1191 27.2385 58.2111C28.0759 58.3202 28.9246 58.1243 29.6303 57.6591C29.6043 57.4241 29.5925 57.1878 29.595 56.9514C29.595 53.243 31.9798 49.5629 34.9078 49.5629C35.6955 49.5131 36.4726 49.7662 37.0809 50.2706C37.2594 50.0738 37.4774 49.9171 37.7207 49.811C37.9639 49.7049 38.2268 49.6517 38.492 49.6549C38.8409 49.6493 39.184 49.7451 39.4798 49.9309L38.0052 56.9372C37.7512 58.1191 38.0899 58.5013 38.6402 58.5013C39.3538 58.4458 40.0312 58.1632 40.5734 57.6945C40.6433 57.4156 40.8014 57.167 41.024 56.9859C41.2466 56.8047 41.5217 56.7007 41.8081 56.6895C42.1158 56.6434 42.4302 56.6902 42.7112 56.824C42.5752 57.3753 42.556 57.9491 42.6548 58.5083C43.6143 57.6449 44.4539 56.3852 44.9266 50.5183C44.034 50.7129 43.2492 51.2419 42.7324 51.9974C42.412 51.7576 42.187 51.4115 42.0974 51.0208C41.8645 49.7257 42.8946 49.018 44.08 48.8056C45.1086 48.5841 46.1627 48.5055 47.2126 48.5721L48.7719 55.5997L50.8885 49.1383C51.2625 48.013 51.6576 47.5742 52.3984 47.4398C52.7501 47.3731 53.1132 47.4024 53.4497 47.5247L53.7531 54.6018C53.8025 55.7978 54.1129 56.1234 54.6562 56.0172C55.4661 55.7977 56.1715 55.2959 56.6458 54.6018C56.7541 54.6217 56.8542 54.6733 56.9333 54.7501C57.0124 54.8269 57.067 54.9255 57.0903 55.0335C57.1172 55.2061 57.0795 55.3825 56.9845 55.5289C56.2154 56.8098 54.8678 58.0413 53.7742 58.2465C52.6806 58.4517 51.326 58.1403 51.2413 55.3307L51.1355 51.6719L48.9201 59.0816C47.9887 59.5062 47.1985 59.3717 46.9939 58.3739L45.7945 52.6627C45.6563 54.2899 45.3295 55.8954 44.8208 57.4468C44.1788 59.2373 43.3109 60.1998 42.5207 60.3625C41.7305 60.5253 41.1096 59.9804 40.7427 58.8056C39.762 59.7822 38.4285 60.5678 37.4055 60.5678C36.3824 60.5678 35.4229 60.1007 35.444 58.4446C34.555 59.6902 33.4403 60.5678 32.2338 60.5678C31.6372 60.5735 31.059 60.3611 30.6072 59.9704C30.1553 59.5797 29.8607 59.0373 29.7785 58.4446C29.7235 58.5271 29.6542 58.5991 29.5739 58.657C28.3674 59.5345 26.7517 60.1785 25.397 59.8671C24.3669 59.6407 23.3932 58.8834 24.4375 56.5763L26.2154 52.6627C26.5047 52.0328 26.667 51.4879 25.9897 51.3392C25.6357 51.2821 25.2737 51.3018 24.928 51.397C24.5823 51.4922 24.2611 51.6608 23.9859 51.8913L21.3824 57.6166C21.2123 57.9889 20.9133 58.2866 20.5409 58.4545C20.1685 58.6224 19.748 58.6491 19.3575 58.5296C19.0158 58.4617 18.7017 58.2943 18.4544 58.0483L21.3965 51.594C21.6788 50.9642 21.8481 50.4121 21.1708 50.2635C20.7919 50.2058 20.4049 50.2344 20.0384 50.3471C19.672 50.4598 19.3356 50.6538 19.0541 50.9146L16.493 56.5268C16.323 56.8975 16.0251 57.1941 15.6543 57.3618C15.2834 57.5296 14.8646 57.5573 14.4751 57.4397C14.1324 57.3689 13.8168 57.202 13.5649 56.9585L16.9939 49.386C17.1421 49.0675 17.0927 48.8623 16.9022 48.8198C16.7117 48.7773 16.6623 48.8552 16.4365 48.9755C16.3708 48.8871 16.3249 48.7855 16.302 48.6777C16.2791 48.5698 16.2798 48.4583 16.3039 48.3507C16.328 48.2432 16.3751 48.1421 16.4418 48.0545C16.5085 47.9669 16.5934 47.8948 16.6905 47.8432C17.4523 47.3963 18.3443 47.2263 19.2164 47.3619C19.9572 47.5318 20.3029 47.9705 19.9219 48.7207H19.9502ZM35.4723 57.0363C35.2331 57.3955 34.9209 57.6997 34.5561 57.929C34.1912 58.1584 33.7821 58.3076 33.3556 58.3668C32.6994 58.3668 32.2126 57.8997 32.2126 56.8452C32.2126 54.5381 33.1228 51.1836 35.6769 51.1836C36.0136 51.1806 36.3481 51.2381 36.6646 51.3534L35.4723 57.0363Z" fill="#039C42"/>
<path fill-rule="evenodd" clip-rule="evenodd" d="M7.05975 25.9891C2.17734 37.9635 6.70698 57.1708 12.8594 63.7737C13.0358 63.9011 13.2263 64.0285 13.4238 64.1559C19.2446 63.6553 24.8792 61.8511 29.9125 58.8764C29.8604 58.7325 29.8157 58.586 29.7785 58.4376C29.7235 58.5201 29.6542 58.592 29.5739 58.6499C28.3674 59.5275 26.7517 60.1715 25.397 59.8601C24.3669 59.6336 23.3932 58.8764 24.4375 56.5692L26.2154 52.6627C26.5047 52.0328 26.667 51.4879 25.9897 51.3393C25.6357 51.2821 25.2737 51.3018 24.928 51.397C24.5823 51.4922 24.2611 51.6608 23.9859 51.8913L21.3824 57.6166C21.2123 57.9889 20.9133 58.2866 20.5409 58.4545C20.1685 58.6224 19.748 58.6491 19.3575 58.5296C19.0158 58.4617 18.7017 58.2943 18.4544 58.0483L21.3965 51.594C21.6788 50.9642 21.8481 50.4122 21.1708 50.2635C20.7919 50.2058 20.4049 50.2344 20.0384 50.3471C19.672 50.4598 19.3356 50.6538 19.0541 50.9146L16.493 56.5268C16.323 56.8975 16.0251 57.1941 15.6543 57.3619C15.2834 57.5296 14.8646 57.5573 14.4751 57.4397C14.1324 57.3689 13.8168 57.202 13.5649 56.9585L16.9939 49.386C17.1421 49.0675 17.0927 48.8623 16.9022 48.8198C16.7117 48.7773 16.6623 48.8552 16.4365 48.9755C16.3708 48.8871 16.3249 48.7855 16.302 48.6777C16.2791 48.5698 16.2798 48.4583 16.3039 48.3507C16.328 48.2432 16.3751 48.1421 16.4418 48.0545C16.5085 47.9669 16.5934 47.8948 16.6905 47.8432C17.4523 47.3963 18.3443 47.2263 19.2164 47.3619C19.9572 47.5318 20.3029 47.9706 19.9219 48.7207L19.5127 49.6054C20.6275 48.5721 21.841 47.9564 23.0405 48.1899C23.8871 48.374 24.6844 49.2515 24.2963 50.7023C25.4393 49.6549 26.667 48.9967 27.8241 49.2869C28.7484 49.4921 29.9407 50.398 28.8824 52.7051L26.8716 57.2416C26.6106 57.8077 26.8293 58.1191 27.2385 58.2111C28.0759 58.3202 28.9246 58.1243 29.6303 57.6591C29.6043 57.4241 29.5925 57.1878 29.595 56.9514C29.595 53.243 31.9798 49.5629 34.9078 49.5629C35.6955 49.5131 36.4726 49.7662 37.0809 50.2706C37.2594 50.0738 37.4774 49.9172 37.7207 49.811C37.9639 49.7049 38.2268 49.6517 38.492 49.6549C38.8409 49.6493 39.184 49.7451 39.4798 49.9309L39.254 51.2472C42.7513 47.3378 45.4333 42.7659 47.1421 37.8008C45.9567 37.9989 44.6938 38.1617 43.3392 38.2891C43.1306 40.3623 42.162 42.284 40.6211 43.6815C39.0803 45.079 37.0769 45.8528 34.9995 45.8528C32.9222 45.8528 30.9188 45.079 29.3779 43.6815C27.8371 42.284 26.8685 40.3623 26.6599 38.2891C11.9281 36.8737 7.35608 31.2898 7.05975 25.9749V25.9891ZM45.477 7.87882C46.5516 10.1343 47.4092 12.4875 48.0381 14.9064H47.8617C46.9727 14.8073 46.1331 15.3735 45.3853 16.2227C45.4496 16.0333 45.4712 15.8319 45.4486 15.6331C45.4259 15.4343 45.3595 15.2431 45.2542 15.0731C45.1489 14.9032 45.0073 14.7588 44.8397 14.6504C44.672 14.542 44.4824 14.4723 44.2846 14.4464C43.4168 14.3473 42.5842 14.8851 41.8504 15.7132L42.0833 15.0479C42.2879 14.4817 41.9986 14.1845 41.4483 14.1208C40.8068 14.0859 40.1731 14.276 39.6562 14.6587C39.5883 14.7046 39.5313 14.7651 39.4894 14.8356C39.4474 14.9062 39.4214 14.9851 39.4134 15.0669C39.4053 15.1487 39.4153 15.2312 39.4426 15.3086C39.4699 15.3861 39.5139 15.4566 39.5715 15.515C39.7197 15.4018 39.8185 15.3522 39.8961 15.3664C39.9737 15.3805 40.0936 15.5292 40.009 15.7627L38.7178 19.6056C38.0596 20.1028 37.35 20.5275 36.6011 20.8724C36.6505 20.6742 36.6929 20.4619 36.7423 20.2425L38.0475 14.142C37.8371 14.0066 37.592 13.9353 37.342 13.9368C37.0439 13.9117 36.747 13.9974 36.5076 14.1774C36.2683 14.3574 36.1032 14.6194 36.0438 14.9134L35.0419 19.5206C34.8906 19.6868 34.7079 19.8212 34.5044 19.916C34.301 20.0107 34.0807 20.064 33.8566 20.0727C33.3556 20.0727 33.2286 19.7046 33.3344 19.2234L34.2869 14.7861C34.428 14.1987 34.1035 13.9368 33.5814 13.9368C32.9443 13.9707 32.3374 14.2202 31.8598 14.6445C31.7998 14.6977 31.7517 14.763 31.7187 14.8362C31.6858 14.9094 31.6687 14.9888 31.6687 15.0691C31.6687 15.1495 31.6858 15.2289 31.7187 15.3021C31.7517 15.3753 31.7998 15.4406 31.8598 15.4938C32.001 15.3664 32.0927 15.3098 32.1632 15.3098C32.2338 15.3098 32.382 15.4442 32.3185 15.6919L31.6129 18.8483C31.5635 19.0748 31.5282 19.3083 31.5 19.556C31.1234 20.0449 30.5857 20.3835 29.9831 20.5114C29.6797 20.5468 29.4539 20.384 29.4963 19.9311L29.842 16.3218C30.0325 14.4817 28.9883 14.135 28.3039 14.1987C27.4149 14.2977 26.7305 15.0479 26.1872 16.0387C26.1948 15.8459 26.1616 15.6537 26.0897 15.4747C26.0179 15.2958 25.909 15.1341 25.7704 15.0004C25.6317 14.8667 25.4664 14.7639 25.2853 14.6989C25.1042 14.6339 24.9114 14.6081 24.7197 14.6233C24.2549 14.732 23.823 14.9516 23.4607 15.2632C23.0984 15.5749 22.8163 15.9696 22.6383 16.4138L22.7089 15.7061C22.7794 15.1116 22.4337 14.8851 21.8834 14.9488C21.2197 15.0386 20.6095 15.3622 20.1618 15.8618C20.1086 15.9216 20.0686 15.992 20.0445 16.0684C20.0204 16.1449 20.0128 16.2256 20.0221 16.3052C20.0315 16.3848 20.0576 16.4615 20.0987 16.5303C20.1398 16.599 20.195 16.6582 20.2606 16.704C20.3876 16.5695 20.4723 16.4916 20.5428 16.4846C20.6134 16.4775 20.7757 16.5978 20.7404 16.8526L20.1689 22.8752C20.3892 22.9777 20.6328 23.0192 20.8744 22.9955C21.1718 22.9818 21.4544 22.8613 21.6707 22.656C21.887 22.4508 22.0226 22.1744 22.0527 21.8773L22.476 17.4046C22.61 17.1559 22.7982 16.9408 23.0267 16.7754C23.2551 16.6099 23.5179 16.4984 23.7954 16.4492C24.2963 16.3926 24.3105 16.8101 24.2611 17.3126L23.7742 22.4576C23.994 22.5616 24.2387 22.6008 24.4798 22.5709C24.7763 22.5601 25.0587 22.4413 25.2743 22.2368C25.4898 22.0324 25.6238 21.7561 25.651 21.4598L26.1661 16.9163C26.2998 16.6911 26.4807 16.4979 26.6964 16.3501C26.912 16.2022 27.1572 16.1032 27.4149 16.0599C27.9158 15.9962 27.9511 16.4138 27.8876 16.9163L27.5772 20.0373C27.4008 21.8773 28.2827 22.1604 28.9883 22.0755C29.9714 21.8779 30.8394 21.3043 31.4083 20.476C31.406 20.6596 31.4415 20.8417 31.5125 21.011C31.5834 21.1802 31.6883 21.333 31.8207 21.4598C31.9531 21.5866 32.1101 21.6847 32.2819 21.748C32.4537 21.8113 32.6367 21.8385 32.8194 21.8278C33.2352 21.7871 33.6365 21.6526 33.9933 21.4345C34.35 21.2163 34.653 20.9201 34.8796 20.568C34.7526 20.9856 34.6609 21.3678 34.555 21.7358C32.008 22.8823 29.9125 23.8023 29.9125 25.7626C29.9036 26.0147 29.9466 26.2659 30.0389 26.5006C30.1313 26.7352 30.2709 26.9482 30.449 27.1263C30.6272 27.3043 30.84 27.4435 31.0743 27.5352C31.3086 27.627 31.5592 27.6692 31.8105 27.6593C34.548 27.6593 35.6839 24.6232 36.3895 21.757C37.0703 21.4341 37.726 21.0604 38.3509 20.6388L38.0616 21.5235C38.2651 21.6823 38.5103 21.7782 38.7672 21.7995C39.061 21.8617 39.3674 21.8131 39.6277 21.6629C39.8881 21.5128 40.0841 21.2716 40.1783 20.9856L41.5894 16.7393C41.7729 16.5192 42.0047 16.3446 42.2666 16.2292C42.5285 16.1138 42.8135 16.0607 43.0993 16.0741C43.6073 16.1307 43.5297 16.5412 43.3674 17.0224L41.6882 21.9198C41.8931 22.0771 42.1371 22.175 42.3937 22.2029C42.6883 22.2631 42.9948 22.2128 43.2549 22.0615C43.515 21.9101 43.7106 21.6683 43.8048 21.3819L45.2159 17.0366C45.3984 16.8491 45.6187 16.7029 45.862 16.6077C46.1054 16.5125 46.3662 16.4705 46.627 16.4846C47.128 16.5483 47.0645 16.9587 46.8881 17.4329L45.9215 20.4053C45.3359 22.1533 46.1049 22.6275 46.8669 22.7195C47.7041 22.766 48.5308 22.5154 49.2023 22.0118C49.2728 22.9554 49.3081 23.9179 49.3081 24.8992C49.3092 27.7258 49.0088 30.5444 48.4121 33.3068C46.5863 33.9085 44.6874 34.2585 42.7677 34.3471C42.1386 32.8003 41.0644 31.4765 39.6821 30.5447C38.2998 29.6128 36.6721 29.1152 35.0066 29.1152C33.3411 29.1152 31.7134 29.6128 30.3311 30.5447C28.9488 31.4765 27.8746 32.8003 27.2455 34.3471C7.82175 33.2502 7.9558 11.1201 16.8669 9.15977C19.6009 8.56839 22.3632 8.11723 25.143 7.80805C25.4492 6.57373 26.0278 5.42416 26.8362 4.44422C27.6447 3.46428 28.6622 2.679 29.8137 2.14637C31.4337 1.37283 33.2054 0.971436 34.9995 0.971436C36.7937 0.971436 38.5653 1.37283 40.1853 2.14637C41.3376 2.67685 42.3555 3.46156 43.1631 4.44192C43.9706 5.42228 44.5469 6.57296 44.849 7.80805L45.477 7.87882ZM48.6872 17.8575L47.7277 20.6884C47.5866 21.1201 47.7277 21.3253 48.0734 21.3607C48.4381 21.3877 48.8034 21.3169 49.1317 21.1554C49.0329 20.0373 48.8848 18.9262 48.6872 17.8363V17.8575ZM36.0438 54.4178C34.8491 55.4799 33.5909 56.4679 32.2761 57.376C32.2437 57.201 32.2272 57.0233 32.2267 56.8452C32.2267 54.5381 33.1369 51.1836 35.691 51.1836C36.0277 51.1806 36.3622 51.2381 36.6788 51.3534L36.0438 54.4178ZM29.2352 7.45419C33.0741 7.20649 36.925 7.20649 40.7639 7.45419C40.2339 6.59544 39.4667 5.9095 38.5555 5.47968C37.4397 4.96691 36.2269 4.70147 34.9995 4.70147C33.7722 4.70147 32.5593 4.96691 31.4436 5.47968C30.5324 5.9095 29.7652 6.59544 29.2352 7.45419ZM31.8105 26.2863C31.6371 26.2671 31.477 26.1841 31.361 26.0534C31.245 25.9227 31.1815 25.7536 31.1825 25.5786C31.1825 24.4038 32.4384 23.6607 34.2728 22.7478C33.4826 25.2319 32.8617 26.2863 31.8105 26.2863ZM33.405 34.5948C33.405 36.2367 34.8584 37.8999 36.4318 39.1383C36.6091 38.6167 36.6974 38.0688 36.6929 37.5177C36.6931 37.3094 36.6789 37.1013 36.6505 36.8949C36.5362 36.8918 36.4227 36.9151 36.3187 36.963C36.2147 37.0108 36.1231 37.082 36.0508 37.1709C35.5569 36.534 36.0931 35.7555 37.2291 35.7555C38.365 35.7555 39.1905 36.2084 40.0513 35.7555C40.5028 36.3429 39.9807 37.3054 39.0212 37.3054C38.4898 37.2559 37.9649 37.1515 37.4549 36.994C37.516 37.3113 37.549 37.6334 37.5536 37.9565C37.5601 38.5667 37.4671 39.1739 37.2785 39.754C38.0259 40.2973 38.8613 40.7067 39.7479 40.9642C39.7479 42.1886 39.0424 42.7689 38.5555 42.6061C37.7634 42.3044 37.0248 41.8767 36.3683 41.3393C35.994 41.7332 35.5441 42.0472 35.0458 42.2625C34.5475 42.4777 34.011 42.5898 33.4685 42.592C31.5 42.592 30.5475 41.2827 30.5475 39.9097C30.5491 39.2489 30.7656 38.6066 31.1642 38.0803C31.5627 37.5541 32.1216 37.1727 32.7559 36.994C32.3827 36.2583 32.1778 35.4483 32.1562 34.6232C32.1562 34.2969 32.2202 33.9739 32.3447 33.6726C32.4691 33.3712 32.6516 33.0973 32.8815 32.8667C33.1115 32.636 33.3845 32.453 33.6849 32.3282C33.9854 32.2033 34.3074 32.1391 34.6327 32.1391C36.0438 32.1391 36.7493 32.9317 36.7493 34.0499C36.7493 34.8709 36.4036 35.2884 35.6769 35.2884C35.5075 35.2773 35.3444 35.2201 35.2051 35.1228C35.0658 35.0255 34.9557 34.8919 34.8867 34.7364C35.0777 34.6359 35.2382 34.4855 35.3512 34.3012C35.4641 34.1168 35.5255 33.9053 35.5287 33.689C35.5254 33.577 35.4991 33.4668 35.4515 33.3655C35.4038 33.2641 35.3358 33.1738 35.2516 33.1C35.1675 33.0263 35.0691 32.9707 34.9626 32.9369C34.8561 32.9031 34.7438 32.8917 34.6327 32.9034C33.9271 32.9034 33.4121 33.413 33.4121 34.5948H33.405ZM33.7154 41.3393C33.4999 41.3475 33.2852 41.3092 33.0857 41.2271C32.8862 41.145 32.7065 41.021 32.5588 40.8634C32.411 40.7059 32.2986 40.5184 32.2292 40.3136C32.1598 40.1088 32.1349 39.8915 32.1562 39.6762C32.154 39.2913 32.2422 38.9112 32.4139 38.5669C32.5855 38.2226 32.8356 37.9238 33.1439 37.6946C33.7994 38.7691 34.6022 39.7458 35.5287 40.5962C35.0434 41.0706 34.3931 41.3371 33.7154 41.3393Z" fill="url(#paint0_linear)"/>
<defs>
<linearGradient id="paint0_linear" x1="36.6011" y1="44.0215" x2="15.2265" y2="19.5429" gradientUnits="userSpaceOnUse">
<stop stop-color="#A6CE38"/>
<stop offset="1" stop-color="#00A650"/>
</linearGradient>
</defs>
</svg>
