<svg width="18" height="14" viewBox="0 0 18 14" fill="none" xmlns="http://www.w3.org/2000/svg">
<path fill-rule="evenodd" clip-rule="evenodd" d="M5.20276 2.38403C5.2559 2.31016 5.31492 2.21973 5.39017 2.09779C5.41767 2.05323 5.49268 1.92948 5.5485 1.83738L5.61135 1.73381C6.23309 0.716791 6.68505 0.25 7.5 0.25H11.25V1.75H7.5C7.43495 1.75 7.23038 1.96129 6.89115 2.51619L6.8366 2.60609L6.83658 2.60614C6.78029 2.69901 6.69825 2.83437 6.66665 2.88557C6.57444 3.03499 6.49781 3.15241 6.42046 3.25994C6.08428 3.72731 5.74826 4 5.25 4H3C2.58579 4 2.25 4.33579 2.25 4.75V11.5C2.25 11.9142 2.58579 12.25 3 12.25H15C15.4142 12.25 15.75 11.9142 15.75 11.5V7H17.25V11.5C17.25 12.7426 16.2426 13.75 15 13.75H3C1.75736 13.75 0.75 12.7426 0.75 11.5V4.75C0.75 3.50736 1.75736 2.5 3 2.5H5.11215C5.13712 2.47145 5.16772 2.43275 5.20276 2.38403ZM12.75 4V2.5H14.25V1H15.75V2.5H17.25V4H15.75V5.5H14.25V4H12.75ZM9 11.5C6.92893 11.5 5.25 9.82107 5.25 7.75C5.25 5.67893 6.92893 4 9 4C11.0711 4 12.75 5.67893 12.75 7.75C12.75 9.82107 11.0711 11.5 9 11.5ZM8.99999 10C10.2426 10 11.25 8.99264 11.25 7.75C11.25 6.50736 10.2426 5.5 8.99999 5.5C7.75735 5.5 6.74999 6.50736 6.74999 7.75C6.74999 8.99264 7.75735 10 8.99999 10Z" fill="#FF5553"/>
</svg>
