<svg width="20" height="20" viewBox="0 0 20 20" fill="none" xmlns="http://www.w3.org/2000/svg">
<path fill-rule="evenodd" clip-rule="evenodd" d="M9.99967 19.1667C4.93706 19.1667 0.833008 15.0626 0.833008 10C0.833008 4.93743 4.93706 0.833374 9.99967 0.833374C15.0623 0.833374 19.1663 4.93743 19.1663 10C19.1663 15.0626 15.0623 19.1667 9.99967 19.1667ZM9.99967 17.5C14.1418 17.5 17.4997 14.1422 17.4997 10C17.4997 5.8579 14.1418 2.50004 9.99967 2.50004C5.85754 2.50004 2.49967 5.8579 2.49967 10C2.49967 14.1422 5.85754 17.5 9.99967 17.5ZM12.3251 12.3255L14.6506 5.3491L7.67419 7.67457L5.34871 14.651L12.3251 12.3255ZM11.0075 11.0079L7.98397 12.0158L8.99183 8.99218L12.0154 7.98432L11.0075 11.0079Z" fill="white"/>
</svg>
