<svg width="15" height="15" viewBox="0 0 15 15" fill="none" xmlns="http://www.w3.org/2000/svg">
<path fill-rule="evenodd" clip-rule="evenodd" d="M7.5 14.375C3.70304 14.375 0.625 11.297 0.625 7.5C0.625 3.70304 3.70304 0.625 7.5 0.625C11.297 0.625 14.375 3.70304 14.375 7.5C14.375 11.297 11.297 14.375 7.5 14.375ZM7.49997 13.125C10.6066 13.125 13.125 10.6066 13.125 7.5C13.125 4.3934 10.6066 1.875 7.49997 1.875C4.39336 1.875 1.87497 4.3934 1.87497 7.5C1.87497 10.6066 4.39336 13.125 7.49997 13.125ZM9.24407 9.2441L10.9882 4.01179L5.75585 5.75589L4.01175 10.9882L9.24407 9.2441ZM8.2559 8.2559L5.98822 9.01179L6.74411 6.74411L9.01179 5.98822L8.2559 8.2559Z" fill="#FF5553"/>
</svg>
