<svg width="13" height="13" viewBox="0 0 13 13" fill="none" xmlns="http://www.w3.org/2000/svg">
<path fill-rule="evenodd" clip-rule="evenodd" d="M4.00003 2.75H2.75003V2.125H1.49997V4H11.5V2.125H10.25V2.75H8.99997V2.125H4.00003V2.75ZM11.5 5.25H1.49997V11.5H11.5V5.25ZM8.99997 0.874996H4.00003V0.25H2.75003V0.874996H1.5C0.809644 0.874996 0.25 1.43464 0.25 2.125V11.5C0.25 12.1904 0.809644 12.75 1.5 12.75H11.5C12.1904 12.75 12.75 12.1904 12.75 11.5V2.125C12.75 1.43464 12.1904 0.874996 11.5 0.874996H10.25V0.25H8.99997V0.874996ZM4.62497 7.75H3.37497V6.5H4.62497V7.75ZM5.875 7.75H7.125V6.5H5.875V7.75ZM9.62503 7.75H8.37503V6.5H9.62503V7.75ZM3.37497 10.25H4.62497V9.00001H3.37497V10.25ZM7.125 10.25H5.875V9.00001H7.125V10.25Z" fill="#444444"/>
</svg>
