<svg width="150" height="45" viewBox="0 0 150 45" fill="none" xmlns="http://www.w3.org/2000/svg">
<path d="M144.444 0H5.55556C2.48731 0 0 2.48731 0 5.55556V38.8889C0 41.9571 2.48731 44.4444 5.55556 44.4444H144.444C147.513 44.4444 150 41.9571 150 38.8889V5.55556C150 2.48731 147.513 0 144.444 0Z" fill="white"/>
<path d="M144.444 0.888889C145.682 0.888889 146.869 1.38055 147.744 2.25572C148.619 3.13089 149.111 4.31788 149.111 5.55556V38.8889C149.111 40.1266 148.619 41.3135 147.744 42.1887C146.869 43.0639 145.682 43.5556 144.444 43.5556H5.55556C4.31788 43.5556 3.13089 43.0639 2.25572 42.1887C1.38055 41.3135 0.888889 40.1266 0.888889 38.8889V5.55556C0.888889 4.31788 1.38055 3.13089 2.25572 2.25572C3.13089 1.38055 4.31788 0.888889 5.55556 0.888889H144.444ZM144.444 0H5.55556C4.08213 0 2.66905 0.585316 1.62718 1.62718C0.585316 2.66905 0 4.08213 0 5.55556V38.8889C0 40.3623 0.585316 41.7754 1.62718 42.8173C2.66905 43.8591 4.08213 44.4444 5.55556 44.4444H144.444C145.918 44.4444 147.331 43.8591 148.373 42.8173C149.415 41.7754 150 40.3623 150 38.8889V5.55556C150 4.08213 149.415 2.66905 148.373 1.62718C147.331 0.585316 145.918 0 144.444 0Z" fill="#A6A6A6"/>
<path d="M75.7113 25.5556C74.7783 25.5599 73.8675 25.8406 73.0938 26.3622C72.3202 26.8837 71.7184 27.6228 71.3644 28.486C71.0104 29.3493 70.92 30.298 71.1047 31.2126C71.2895 32.1271 71.7409 32.9665 72.4022 33.6247C73.0635 34.2829 73.905 34.7304 74.8204 34.9108C75.7358 35.0912 76.6841 34.9964 77.5457 34.6384C78.4073 34.2803 79.1435 33.6751 79.6614 32.899C80.1793 32.1229 80.4557 31.2108 80.4557 30.2778C80.4648 29.6533 80.3481 29.0333 80.1126 28.4548C79.8771 27.8763 79.5276 27.3512 79.0849 26.9106C78.6422 26.4699 78.1154 26.1229 77.5358 25.8901C76.9562 25.6573 76.3357 25.5436 75.7113 25.5556ZM75.7113 33.1444C75.1375 33.1846 74.5649 33.0512 74.0679 32.7615C73.5709 32.4719 73.1726 32.0395 72.9246 31.5205C72.6767 31.0015 72.5906 30.4199 72.6776 29.8513C72.7646 29.2827 73.0206 28.7534 73.4124 28.3323C73.8041 27.9111 74.3135 27.6175 74.8744 27.4897C75.4352 27.3619 76.0215 27.4058 76.557 27.6156C77.0926 27.8255 77.5527 28.1916 77.8774 28.6663C78.2021 29.1411 78.3765 29.7026 78.3779 30.2778C78.3958 30.6422 78.3406 31.0066 78.2154 31.3494C78.0903 31.6921 77.8977 32.0064 77.6492 32.2735C77.4007 32.5407 77.1012 32.7554 76.7683 32.905C76.4355 33.0546 76.0761 33.136 75.7113 33.1444ZM65.3668 25.5556C64.4333 25.5577 63.5214 25.8366 62.7463 26.3568C61.9712 26.877 61.3677 27.6153 61.012 28.4783C60.6563 29.3414 60.5644 30.2905 60.7478 31.2058C60.9313 32.1211 61.3819 32.9615 62.0428 33.6208C62.7036 34.2801 63.545 34.7288 64.4608 34.9101C65.3765 35.0914 66.3254 34.9972 67.1876 34.6395C68.0498 34.2817 68.7867 33.6765 69.3051 32.9001C69.8235 32.1238 70.1002 31.2113 70.1002 30.2778C70.1092 29.6533 69.9925 29.0333 69.757 28.4548C69.5215 27.8763 69.172 27.3512 68.7293 26.9106C68.2867 26.4699 67.7598 26.1229 67.1803 25.8901C66.6007 25.6573 65.9802 25.5436 65.3557 25.5556H65.3668ZM65.3668 33.1444C64.7928 33.1868 64.2192 33.0554 63.7209 32.7673C63.2225 32.4792 62.8225 32.0477 62.5728 31.529C62.3231 31.0103 62.2353 30.4285 62.3209 29.8593C62.4065 29.29 62.6615 28.7597 63.0527 28.3374C63.4439 27.9151 63.9532 27.6204 64.5142 27.4916C65.0753 27.3628 65.6621 27.4058 66.1983 27.6152C66.7346 27.8246 67.1953 28.1905 67.5207 28.6654C67.846 29.1403 68.0208 29.7021 68.0224 30.2778C68.0403 30.6422 67.985 31.0066 67.8599 31.3494C67.7347 31.6921 67.5422 32.0064 67.2937 32.2735C67.0451 32.5407 66.7456 32.7554 66.4128 32.905C66.0799 33.0546 65.7205 33.136 65.3557 33.1444H65.3668ZM53.0446 27.0111V29.0111H57.8446C57.7693 29.9531 57.3778 30.842 56.7335 31.5333C56.2533 32.0225 55.676 32.4057 55.0387 32.6583C54.4015 32.9109 53.7184 33.0273 53.0335 33C51.619 33 50.2625 32.4381 49.2623 31.4379C48.2621 30.4377 47.7002 29.0812 47.7002 27.6667C47.7002 26.2522 48.2621 24.8956 49.2623 23.8954C50.2625 22.8952 51.619 22.3333 53.0335 22.3333C54.3866 22.3113 55.6932 22.8267 56.6668 23.7667L58.0779 22.3556C57.4207 21.69 56.6365 21.1632 55.772 20.8063C54.9074 20.4494 53.9799 20.2697 53.0446 20.2778C52.0568 20.2393 51.0715 20.4007 50.1475 20.7522C49.2236 21.1037 48.3801 21.6381 47.6677 22.3233C46.9552 23.0086 46.3884 23.8307 46.0013 24.7402C45.6141 25.6498 45.4146 26.6281 45.4146 27.6167C45.4146 28.6052 45.6141 29.5835 46.0013 30.4931C46.3884 31.4027 46.9552 32.2247 47.6677 32.91C48.3801 33.5953 49.2236 34.1297 50.1475 34.4811C51.0715 34.8326 52.0568 34.994 53.0446 34.9556C53.9957 34.9985 54.9449 34.8373 55.8284 34.4827C56.712 34.1282 57.5093 33.5885 58.1668 32.9C59.3309 31.621 59.9524 29.9397 59.9002 28.2111C59.9038 27.79 59.8665 27.3695 59.7891 26.9555L53.0446 27.0111ZM103.389 28.5667C103.099 27.7141 102.557 26.9698 101.835 26.432C101.113 25.8943 100.244 25.5887 99.3446 25.5556C98.7368 25.5544 98.1353 25.6778 97.5771 25.9184C97.0189 26.1589 96.516 26.5113 96.0995 26.9539C95.6829 27.3965 95.3616 27.9198 95.1553 28.4915C94.949 29.0632 94.8622 29.6712 94.9002 30.2778C94.8867 30.8988 94.9985 31.5162 95.2289 32.093C95.4593 32.6698 95.8037 33.1943 96.2413 33.6351C96.679 34.0759 97.201 34.4239 97.7762 34.6584C98.3514 34.8929 98.968 35.0091 99.5891 35C100.366 35.0042 101.132 34.8156 101.819 34.451C102.505 34.0865 103.091 33.5574 103.522 32.9111L101.911 31.8C101.671 32.2009 101.33 32.5324 100.923 32.7623C100.516 32.9921 100.057 33.1123 99.5891 33.1111C99.1078 33.1295 98.6321 33.0026 98.2239 32.7469C97.8157 32.4913 97.4938 32.1188 97.3002 31.6778L103.622 29.0667L103.389 28.5667ZM96.9446 30.1444C96.9221 29.8008 96.9684 29.4561 97.0807 29.1305C97.1931 28.8049 97.3693 28.505 97.599 28.2484C97.8287 27.9918 98.1073 27.7836 98.4185 27.636C98.7297 27.4884 99.0672 27.4044 99.4113 27.3889C99.7697 27.3653 100.127 27.4475 100.439 27.6252C100.751 27.803 101.004 28.0686 101.167 28.3889L96.9446 30.1444ZM91.8113 34.7222H93.8891V20.8333H91.8113V34.7222ZM88.4113 26.6111H88.3335C88.0203 26.261 87.6367 25.981 87.2078 25.7895C86.7789 25.598 86.3143 25.4994 85.8446 25.5C84.6304 25.5589 83.4853 26.0827 82.6468 26.9629C81.8083 27.843 81.3405 29.0121 81.3405 30.2278C81.3405 31.4434 81.8083 32.6125 82.6468 33.4927C83.4853 34.3729 84.6304 34.8967 85.8446 34.9556C86.3155 34.9635 86.7823 34.8681 87.2123 34.6761C87.6423 34.4842 88.025 34.2003 88.3335 33.8444H88.4002V34.5222C88.4002 36.3333 87.4335 37.3 85.8779 37.3C85.3599 37.2879 84.8571 37.1218 84.4337 36.8231C84.0102 36.5243 83.6853 36.1063 83.5002 35.6222L81.6891 36.3778C82.03 37.2071 82.6109 37.9156 83.3572 38.4125C84.1036 38.9094 84.9813 39.172 85.8779 39.1667C88.3113 39.1667 90.3224 37.7333 90.3224 34.2444V25.8333H88.4113V26.6111ZM86.0335 33.1444C85.3168 33.0813 84.6497 32.7519 84.1638 32.2213C83.6779 31.6907 83.4084 30.9973 83.4084 30.2778C83.4084 29.5583 83.6779 28.8649 84.1638 28.3342C84.6497 27.8036 85.3168 27.4743 86.0335 27.4111C86.3889 27.4293 86.737 27.5185 87.0573 27.6734C87.3777 27.8282 87.6638 28.0456 87.8989 28.3128C88.1339 28.5799 88.3131 28.8914 88.4259 29.2289C88.5387 29.5663 88.5829 29.923 88.5557 30.2778C88.586 30.6341 88.5438 30.9929 88.4315 31.3324C88.3192 31.6719 88.1392 31.9851 87.9024 32.2531C87.6655 32.5211 87.3768 32.7382 87.0537 32.8914C86.7306 33.0446 86.3797 33.1307 86.0224 33.1444H86.0335ZM113.122 20.8333H108.156V34.7222H110.233V29.4556H113.133C113.726 29.4981 114.32 29.4182 114.88 29.2208C115.44 29.0234 115.953 28.7128 116.388 28.3083C116.823 27.9038 117.169 27.4142 117.406 26.8698C117.643 26.3255 117.765 25.7381 117.765 25.1444C117.765 24.5507 117.643 23.9634 117.406 23.4191C117.169 22.8747 116.823 22.385 116.388 21.9806C115.953 21.5761 115.44 21.2655 114.88 21.0681C114.32 20.8707 113.726 20.7908 113.133 20.8333H113.122ZM113.122 27.5H110.222V22.7667H113.167C113.799 22.7667 114.405 23.0178 114.852 23.4647C115.299 23.9117 115.55 24.5179 115.55 25.15C115.55 25.7821 115.299 26.3883 114.852 26.8353C114.405 27.2822 113.799 27.5333 113.167 27.5333L113.122 27.5ZM125.933 25.5C125.177 25.4548 124.424 25.6315 123.767 26.0086C123.109 26.3856 122.576 26.9465 122.234 27.6222L124.078 28.3889C124.26 28.0537 124.535 27.7787 124.871 27.5972C125.206 27.4157 125.587 27.3356 125.967 27.3667C126.231 27.3359 126.498 27.3579 126.753 27.4315C127.008 27.505 127.246 27.6287 127.453 27.7952C127.66 27.9617 127.831 28.1678 127.958 28.4014C128.084 28.6349 128.163 28.8913 128.189 29.1556V29.3C127.522 28.9467 126.777 28.7635 126.022 28.7667C124.034 28.7667 122.022 29.8778 122.022 31.8889C122.042 32.3177 122.147 32.7382 122.332 33.1256C122.517 33.513 122.778 33.8593 123.099 34.1442C123.42 34.4291 123.795 34.6467 124.202 34.7841C124.609 34.9216 125.039 34.9761 125.467 34.9444C125.99 34.982 126.514 34.878 126.983 34.6434C127.452 34.4088 127.85 34.0522 128.133 33.6111H128.2V34.7222H130.2V29.3778C130.2 26.9444 128.356 25.5333 125.989 25.5333L125.933 25.5ZM125.678 33.1111C125 33.1111 124.056 32.7667 124.056 31.9333C124.056 30.8222 125.234 30.4556 126.278 30.4556C126.938 30.4393 127.59 30.6004 128.167 30.9222C128.097 31.5238 127.813 32.08 127.366 32.4883C126.919 32.8967 126.339 33.1297 125.734 33.1444L125.678 33.1111ZM137.489 25.8333L135.111 31.8555H135.045L132.578 25.8333H130.356L134.056 34.2556L131.945 38.9333H134.111L139.8 25.8333H137.489ZM118.811 34.7222H120.889V20.8333H118.811V34.7222Z" fill="#444444"/>
<path d="M48.1099 16.7165H48.8469L49.0009 15.0005H55.2489V16.7165H55.9749L56.1069 14.2085H55.1059V7.30046H50.0679V8.64246C50.0679 11.1395 49.6389 13.0315 48.9019 14.2085H48.1099V16.7165ZM49.8809 14.2085C50.5189 13.1525 50.9039 11.0845 50.9039 9.09346V8.09246H54.2369V14.2085H49.8809Z" fill="#444444"/>
<path d="M60.9568 15.1325C63.2998 15.1325 64.8948 13.2735 64.8948 11.1505C64.8948 9.00546 63.3218 7.16846 60.9788 7.16846C58.6358 7.16846 57.0408 9.02746 57.0408 11.1505C57.0408 13.2955 58.6138 15.1325 60.9568 15.1325ZM60.9788 14.3295C59.2188 14.3295 57.9428 12.8995 57.9428 11.1505C57.9428 9.37946 59.1968 7.97146 60.9568 7.97146C62.7168 7.97146 63.9928 9.40146 63.9928 11.1505C63.9928 12.9215 62.7388 14.3295 60.9788 14.3295Z" fill="#444444"/>
<path d="M70.2475 15.1325C71.6445 15.1325 72.5245 14.6375 73.3275 13.8235L72.7555 13.2185C72.0185 13.9225 71.3255 14.3295 70.2695 14.3295C68.5755 14.3295 67.2885 12.9325 67.2885 11.1505C67.2885 9.35746 68.5645 7.97146 70.2695 7.97146C71.3145 7.97146 72.0405 8.41146 72.6895 9.02746L73.2615 8.41146C72.4915 7.68546 71.6775 7.16846 70.2805 7.16846C68.0145 7.16846 66.3865 8.97246 66.3865 11.1505C66.3865 13.3835 68.0255 15.1325 70.2475 15.1325Z" fill="#444444"/>
<path d="M76.8836 15.0005H77.7636V8.09246H80.3486V7.30046H74.2986V8.09246H76.8836V15.0005Z" fill="#444444"/>
<path d="M83.1144 15.1325C84.0274 15.1325 84.8414 14.6485 85.4684 13.3835L88.5154 7.30046H87.5694L85.1164 12.3275L82.2784 7.30046H81.2884L84.6764 13.1965C84.2254 14.0545 83.6644 14.3515 83.1364 14.3515C82.7294 14.3515 82.4654 14.2855 82.1574 14.1205L81.8164 14.8135C82.2234 15.0225 82.6084 15.1325 83.1144 15.1325Z" fill="#444444"/>
<path d="M89.9951 15.0005H90.8641V8.09246H95.1981V15.0005H96.0671V7.30046H89.9951V15.0005Z" fill="#444444"/>
<path d="M98.2451 15.0005H99.1141V11.5355H103.558V15.0005H104.427V7.30046H103.558V10.7215H99.1141V7.30046H98.2451V15.0005Z" fill="#444444"/>
<path d="M110.178 15.1325C112.521 15.1325 114.116 13.2735 114.116 11.1505C114.116 9.00546 112.543 7.16846 110.2 7.16846C107.857 7.16846 106.262 9.02746 106.262 11.1505C106.262 13.2955 107.835 15.1325 110.178 15.1325ZM110.2 14.3295C108.44 14.3295 107.164 12.8995 107.164 11.1505C107.164 9.37946 108.418 7.97146 110.178 7.97146C111.938 7.97146 113.214 9.40146 113.214 11.1505C113.214 12.9215 111.96 14.3295 110.2 14.3295Z" fill="#444444"/>
<path d="M119.246 15.0005H122.667C124.35 15.0005 125.461 14.2195 125.461 12.8995C125.461 11.8215 124.724 11.2935 123.811 11.0185C124.416 10.7545 125.032 10.2375 125.032 9.23646C125.032 8.71946 124.856 8.31246 124.537 7.98246C124.108 7.54246 123.404 7.30046 122.524 7.30046H119.246V15.0005ZM120.104 14.2195V11.5025H122.535C123.877 11.5025 124.581 11.9865 124.581 12.8225C124.581 13.7025 123.855 14.2195 122.689 14.2195H120.104ZM120.104 10.7325V8.08146H122.447C123.547 8.08146 124.152 8.57646 124.152 9.33546C124.152 10.2595 123.426 10.7325 122.381 10.7325H120.104Z" fill="#444444"/>
<path d="M11.5996 8.37783C11.2374 8.81239 11.0546 9.36871 11.0885 9.93338V34.5112C11.0546 35.0758 11.2374 35.6322 11.5996 36.0667L11.6773 36.1445L25.444 22.3889V22.0667L11.6773 8.30005L11.5996 8.37783Z" fill="url(#paint0_linear)"/>
<path d="M29.9999 26.9779L25.4443 22.389V22.0668L29.9999 17.4668L30.0999 17.5224L35.5554 20.6224C37.111 21.5001 37.111 22.9446 35.5554 23.8335L30.1221 26.9224L29.9999 26.9779Z" fill="url(#paint1_linear)"/>
<path d="M30.1329 26.9111L25.4441 22.2222L11.5996 36.0666C11.9167 36.3453 12.3212 36.5045 12.7431 36.5167C13.1651 36.5289 13.5781 36.3933 13.9107 36.1333L30.1441 26.9111" fill="url(#paint2_linear)"/>
<path d="M30.1333 17.5334L13.9 8.31119C13.5674 8.05121 13.1544 7.91558 12.7324 7.92776C12.3104 7.93993 11.9059 8.09913 11.5889 8.37786L25.4444 22.2223L30.1333 17.5334Z" fill="url(#paint3_linear)"/>
<path opacity="0.2" d="M29.9996 26.8113L13.8996 35.9779C13.5788 36.2178 13.189 36.3474 12.7885 36.3474C12.388 36.3474 11.9982 36.2178 11.6774 35.9779L11.5996 36.0557L11.6774 36.1335C11.9974 36.375 12.3875 36.5057 12.7885 36.5057C13.1895 36.5057 13.5795 36.375 13.8996 36.1335L30.1329 26.9113L29.9996 26.8113Z" fill="white"/>
<path opacity="0.12" d="M11.5996 35.9111C11.2374 35.4765 11.0546 34.9202 11.0885 34.3555V34.5222C11.0546 35.0868 11.2374 35.6432 11.5996 36.0777L11.6773 35.9999L11.5996 35.9111ZM35.5551 23.6666L29.9996 26.8111L30.0996 26.9111L35.5551 23.8222C35.8647 23.6768 36.1304 23.4523 36.3255 23.1713C36.5206 22.8904 36.6381 22.563 36.6662 22.2222C36.6038 22.5318 36.4711 22.8231 36.2785 23.0735C36.0859 23.3239 35.8384 23.5268 35.5551 23.6666Z" fill="white"/>
<path opacity="0.25" d="M13.8999 8.4663L35.5554 20.7774C35.8387 20.9172 36.0862 21.1201 36.2788 21.3706C36.4714 21.621 36.604 21.9122 36.6665 22.2219C36.6384 21.881 36.5209 21.5536 36.3258 21.2727C36.1307 20.9918 35.865 20.7673 35.5554 20.6219L13.8999 8.31074C12.3443 7.43296 11.0776 8.1663 11.0776 9.94408V10.1107C11.111 8.32185 12.3554 7.58852 13.8999 8.4663Z" fill="#444444"/>
<defs>
<linearGradient id="paint0_linear" x1="24.2218" y1="9.67783" x2="5.57734" y2="28.3223" gradientUnits="userSpaceOnUse">
<stop stop-color="#00A0FF"/>
<stop offset="0.01" stop-color="#00A1FF"/>
<stop offset="0.26" stop-color="#00BEFF"/>
<stop offset="0.51" stop-color="#00D2FF"/>
<stop offset="0.76" stop-color="#00DFFF"/>
<stop offset="1" stop-color="#00E3FF"/>
</linearGradient>
<linearGradient id="paint1_linear" x1="37.5888" y1="22.2224" x2="10.711" y2="22.2224" gradientUnits="userSpaceOnUse">
<stop stop-color="#FFE000"/>
<stop offset="0.41" stop-color="#FFBD00"/>
<stop offset="0.78" stop-color="#FFA500"/>
<stop offset="1" stop-color="#FF9C00"/>
</linearGradient>
<linearGradient id="paint2_linear" x1="27.5885" y1="24.7777" x2="2.29961" y2="50.0555" gradientUnits="userSpaceOnUse">
<stop stop-color="#FF3A44"/>
<stop offset="1" stop-color="#C31162"/>
</linearGradient>
<linearGradient id="paint3_linear" x1="8.11109" y1="0.200081" x2="19.4" y2="11.489" gradientUnits="userSpaceOnUse">
<stop stop-color="#32A071"/>
<stop offset="0.07" stop-color="#2DA771"/>
<stop offset="0.48" stop-color="#15CF74"/>
<stop offset="0.8" stop-color="#06E775"/>
<stop offset="1" stop-color="#00F076"/>
</linearGradient>
</defs>
</svg>
