<svg width="150" height="45" viewBox="0 0 150 45" fill="none" xmlns="http://www.w3.org/2000/svg">
<path d="M144.444 0H5.55556C2.48731 0 0 2.48731 0 5.55556V38.8889C0 41.9571 2.48731 44.4444 5.55556 44.4444H144.444C147.513 44.4444 150 41.9571 150 38.8889V5.55556C150 2.48731 147.513 0 144.444 0Z" fill="white"/>
<path d="M144.444 0.888889C145.682 0.888889 146.869 1.38055 147.744 2.25572C148.619 3.13089 149.111 4.31788 149.111 5.55556V38.8889C149.111 40.1266 148.619 41.3135 147.744 42.1887C146.869 43.0639 145.682 43.5556 144.444 43.5556H5.55556C4.31788 43.5556 3.13089 43.0639 2.25572 42.1887C1.38055 41.3135 0.888889 40.1266 0.888889 38.8889V5.55556C0.888889 4.31788 1.38055 3.13089 2.25572 2.25572C3.13089 1.38055 4.31788 0.888889 5.55556 0.888889H144.444ZM144.444 0H5.55556C4.08213 0 2.66905 0.585316 1.62718 1.62718C0.585316 2.66905 0 4.08213 0 5.55556V38.8889C0 40.3623 0.585316 41.7754 1.62718 42.8173C2.66905 43.8591 4.08213 44.4444 5.55556 44.4444H144.444C145.918 44.4444 147.331 43.8591 148.373 42.8173C149.415 41.7754 150 40.3623 150 38.8889V5.55556C150 4.08213 149.415 2.66905 148.373 1.62718C147.331 0.585316 145.918 0 144.444 0Z" fill="#A6A6A6"/>
<path d="M35.6809 21.4589C35.6502 18.0468 38.4747 16.3868 38.6039 16.3095C37.0042 13.9773 34.5248 13.6586 33.6535 13.6332C31.5711 13.414 29.5512 14.8792 28.4904 14.8792C27.4084 14.8792 25.7749 13.6544 24.0143 13.6903C21.7488 13.7253 19.6293 15.037 18.4669 17.0739C16.0679 21.227 17.8571 27.3303 20.1555 30.6874C21.3052 32.3315 22.6486 34.1672 24.4071 34.1026C26.1274 34.0317 26.77 33.0059 28.8461 33.0059C30.9031 33.0059 31.5066 34.1026 33.2999 34.0613C35.1463 34.0317 36.3087 32.4098 37.4182 30.7509C38.7468 28.8664 39.2804 27.0106 39.3016 26.9153C39.2582 26.9005 35.7158 25.5486 35.6809 21.4589Z" fill="#444444"/>
<path d="M32.2929 11.4249C33.2182 10.2677 33.8513 8.69349 33.6755 7.09595C32.3363 7.15523 30.6615 8.02229 29.697 9.15401C28.8437 10.1513 28.0815 11.7859 28.2784 13.3231C29.7828 13.4353 31.3274 12.564 32.2929 11.4249Z" fill="#444444"/>
<path d="M60.5773 33.8664H58.1731L56.8561 29.7281H52.2784L51.0238 33.8664H48.6831L53.2185 19.7776H56.0197L60.5773 33.8664ZM56.4591 27.9918L55.2681 24.3129C55.1421 23.9371 54.906 23.0521 54.5577 21.6589H54.5153C54.3767 22.2581 54.1533 23.1431 53.8463 24.3129L52.6764 27.9918H56.4591Z" fill="#444444"/>
<path d="M72.2402 28.6622C72.2402 30.3899 71.7733 31.7556 70.8396 32.7582C70.0032 33.6506 68.9647 34.0963 67.725 34.0963C66.3868 34.0963 65.4255 33.6157 64.8401 32.6544H64.7978V38.006H62.5407V27.0519C62.5407 25.9657 62.5121 24.851 62.457 23.7076H64.442L64.568 25.3178H64.6104C65.3631 24.1046 66.5054 23.499 68.0384 23.499C69.2368 23.499 70.2372 23.9722 71.0376 24.9198C71.84 25.8683 72.2402 27.1155 72.2402 28.6622ZM69.9408 28.7448C69.9408 27.7559 69.7185 26.9408 69.2717 26.2992C68.7837 25.6301 68.1283 25.2956 67.3068 25.2956C66.7499 25.2956 66.2439 25.4819 65.7918 25.8493C65.3387 26.2198 65.0423 26.7036 64.9036 27.3028C64.8337 27.5823 64.7988 27.811 64.7988 27.991V29.6849C64.7988 30.4238 65.0254 31.0474 65.4785 31.5566C65.9316 32.0658 66.5202 32.3199 67.2443 32.3199C68.0945 32.3199 68.7561 31.9917 69.2294 31.3374C69.7036 30.6821 69.9408 29.8182 69.9408 28.7448Z" fill="#444444"/>
<path d="M83.9252 28.6622C83.9252 30.3899 83.4583 31.7556 82.5235 32.7582C81.6882 33.6506 80.6497 34.0963 79.41 34.0963C78.0718 34.0963 77.1105 33.6157 76.5261 32.6544H76.4838V38.006H74.2267V27.0519C74.2267 25.9657 74.1981 24.851 74.1431 23.7076H76.1281L76.2541 25.3178H76.2964C77.0481 24.1046 78.1904 23.499 79.7244 23.499C80.9218 23.499 81.9222 23.9722 82.7247 24.9198C83.524 25.8683 83.9252 27.1155 83.9252 28.6622ZM81.6258 28.7448C81.6258 27.7559 81.4024 26.9408 80.9556 26.2992C80.4676 25.6301 79.8144 25.2956 78.9918 25.2956C78.4339 25.2956 77.9289 25.4819 77.4758 25.8493C77.0227 26.2198 76.7273 26.7036 76.5886 27.3028C76.5198 27.5823 76.4838 27.811 76.4838 27.991V29.6849C76.4838 30.4238 76.7103 31.0474 77.1613 31.5566C77.6145 32.0648 78.2031 32.3199 78.9293 32.3199C79.7794 32.3199 80.4411 31.9917 80.9143 31.3374C81.3886 30.6821 81.6258 29.8182 81.6258 28.7448Z" fill="#444444"/>
<path d="M96.9894 29.9156C96.9894 31.114 96.5734 32.089 95.7381 32.8418C94.8202 33.6643 93.5424 34.0751 91.9004 34.0751C90.3844 34.0751 89.169 33.7829 88.249 33.1975L88.772 31.3162C89.7629 31.9154 90.8502 32.2161 92.0348 32.2161C92.885 32.2161 93.5466 32.0234 94.022 31.6402C94.4952 31.2569 94.7313 30.7424 94.7313 30.1009C94.7313 29.5292 94.5365 29.0475 94.1458 28.6568C93.7573 28.2662 93.1083 27.9031 92.2021 27.5675C89.7354 26.6475 88.5031 25.2998 88.5031 23.5276C88.5031 22.3694 88.935 21.4197 89.8 20.6808C90.6617 19.9408 91.8115 19.5713 93.2491 19.5713C94.5312 19.5713 95.5962 19.7947 96.4463 20.2404L95.8821 22.0803C95.0881 21.6484 94.1903 21.4324 93.1856 21.4324C92.3916 21.4324 91.7712 21.6283 91.3266 22.0179C90.9508 22.3662 90.7623 22.7907 90.7623 23.2936C90.7623 23.8504 90.9772 24.311 91.4092 24.673C91.785 25.0076 92.4678 25.3696 93.4588 25.7603C94.6709 26.2483 95.5613 26.819 96.134 27.4732C96.7047 28.1254 96.9894 28.9416 96.9894 29.9156Z" fill="#444444"/>
<path d="M104.452 25.4014H101.964V30.3338C101.964 31.5883 102.402 32.2151 103.281 32.2151C103.684 32.2151 104.019 32.1801 104.284 32.1102L104.346 33.8242C103.902 33.9905 103.316 34.0741 102.591 34.0741C101.699 34.0741 101.003 33.802 100.5 33.2589C99.9992 32.7148 99.7473 31.8022 99.7473 30.5201V25.3993H98.2651V23.7054H99.7473V21.8454L101.964 21.1763V23.7054H104.452V25.4014Z" fill="#444444"/>
<path d="M115.677 28.7034C115.677 30.2649 115.23 31.547 114.339 32.5495C113.404 33.5817 112.163 34.0963 110.617 34.0963C109.126 34.0963 107.939 33.6019 107.054 32.6131C106.169 31.6243 105.727 30.3761 105.727 28.8717C105.727 27.2975 106.182 26.008 107.095 25.0054C108.007 24.0018 109.237 23.5 110.784 23.5C112.274 23.5 113.474 23.9944 114.379 24.9843C115.245 25.9445 115.677 27.1842 115.677 28.7034ZM113.335 28.7764C113.335 27.8395 113.135 27.036 112.73 26.3658C112.256 25.5549 111.58 25.1505 110.703 25.1505C109.796 25.1505 109.107 25.5559 108.634 26.3658C108.228 27.037 108.028 27.8533 108.028 28.8188C108.028 29.7557 108.228 30.5592 108.634 31.2283C109.122 32.0393 109.804 32.4437 110.683 32.4437C111.545 32.4437 112.222 32.0308 112.71 31.2071C113.126 30.5243 113.335 29.7123 113.335 28.7764Z" fill="#444444"/>
<path d="M123.013 25.6926C122.79 25.6513 122.552 25.6301 122.302 25.6301C121.508 25.6301 120.894 25.9297 120.462 26.53C120.086 27.0593 119.898 27.7284 119.898 28.5362V33.8666H117.642L117.663 26.9069C117.663 25.736 117.634 24.6699 117.578 23.7086H119.544L119.627 25.6524H119.689C119.927 24.9843 120.303 24.4465 120.818 24.0432C121.321 23.6801 121.864 23.499 122.449 23.499C122.658 23.499 122.846 23.5138 123.013 23.5403V25.6926Z" fill="#444444"/>
<path d="M133.108 28.3065C133.108 28.7109 133.081 29.0518 133.025 29.3302H126.254C126.281 30.3338 126.608 31.1014 127.237 31.6307C127.807 32.1039 128.545 32.3411 129.451 32.3411C130.454 32.3411 131.369 32.1812 132.191 31.8604L132.545 33.4273C131.583 33.8465 130.449 34.0551 129.139 34.0551C127.564 34.0551 126.327 33.5914 125.427 32.665C124.53 31.7387 124.08 30.4948 124.08 28.9343C124.08 27.4024 124.498 26.1267 125.335 25.1093C126.212 24.0231 127.396 23.48 128.887 23.48C130.351 23.48 131.46 24.0231 132.212 25.1093C132.808 25.9721 133.108 27.0392 133.108 28.3065ZM130.956 27.721C130.97 27.0519 130.823 26.4739 130.517 25.9859C130.127 25.3581 129.526 25.0447 128.719 25.0447C127.981 25.0447 127.381 25.3507 126.922 25.9647C126.546 26.4527 126.323 27.0382 126.254 27.72H130.956V27.721Z" fill="#444444"/>
<path d="M49.1099 16.716V14.208H49.9019C50.6792 12.9686 51.0679 11.1133 51.0679 8.64197V7.29997H56.1059V14.208H57.1069L56.9749 16.716H56.2489V15H50.0009L49.8469 16.716H49.1099ZM50.8809 14.208H55.2369V8.09197H51.9039V9.09297C51.9039 10.105 51.8122 11.0803 51.6289 12.019C51.4455 12.9576 51.1962 13.6873 50.8809 14.208Z" fill="#444444"/>
<path d="M64.7838 13.966C64.0432 14.7433 63.1008 15.132 61.9568 15.132C60.8128 15.132 59.8742 14.7433 59.1408 13.966C58.4075 13.1886 58.0408 12.25 58.0408 11.15C58.0408 10.0573 58.4112 9.1223 59.1518 8.34497C59.8925 7.5603 60.8348 7.16797 61.9788 7.16797C63.1228 7.16797 64.0615 7.55664 64.7948 8.33397C65.5282 9.1113 65.8948 10.05 65.8948 11.15C65.8948 12.2426 65.5245 13.1813 64.7838 13.966ZM59.8008 13.405C60.3802 14.021 61.1062 14.329 61.9788 14.329C62.8515 14.329 63.5702 14.0246 64.1348 13.416C64.7068 12.8 64.9928 12.0446 64.9928 11.15C64.9928 10.2626 64.7032 9.51097 64.1238 8.89497C63.5518 8.27897 62.8295 7.97097 61.9568 7.97097C61.0842 7.97097 60.3618 8.27897 59.7898 8.89497C59.2252 9.50364 58.9428 10.2553 58.9428 11.15C58.9428 12.0373 59.2288 12.789 59.8008 13.405Z" fill="#444444"/>
<path d="M71.2475 15.132C70.1402 15.132 69.2199 14.7506 68.4865 13.988C67.7532 13.218 67.3865 12.272 67.3865 11.15C67.3865 10.0426 67.7569 9.10397 68.4975 8.33397C69.2382 7.55664 70.1659 7.16797 71.2805 7.16797C71.9259 7.16797 72.4759 7.2743 72.9305 7.48697C73.3852 7.6923 73.8289 8.0003 74.2615 8.41097L73.6895 9.02697C72.9489 8.32297 72.1422 7.97097 71.2695 7.97097C70.4189 7.97097 69.7075 8.2753 69.1355 8.88397C68.5709 9.49264 68.2885 10.248 68.2885 11.15C68.2885 12.0446 68.5745 12.8 69.1465 13.416C69.7185 14.0246 70.4262 14.329 71.2695 14.329C71.7682 14.329 72.2082 14.2373 72.5895 14.054C72.9709 13.8706 73.3595 13.592 73.7555 13.218L74.3275 13.823C73.8949 14.2556 73.4402 14.582 72.9635 14.802C72.4869 15.022 71.9149 15.132 71.2475 15.132Z" fill="#444444"/>
<path d="M77.8836 15V8.09197H75.2986V7.29997H81.3486V8.09197H78.7636V15H77.8836Z" fill="#444444"/>
<path d="M84.1144 15.132C83.6598 15.132 83.2271 15.0256 82.8164 14.813L83.1574 14.12C83.4434 14.274 83.7698 14.351 84.1364 14.351C84.7598 14.351 85.2731 13.966 85.6764 13.196L82.2884 7.29997H83.2784L86.1164 12.327L88.5694 7.29997H89.5154L86.4684 13.383C85.8891 14.549 85.1044 15.132 84.1144 15.132Z" fill="#444444"/>
<path d="M90.9951 15V7.29997H97.0671V15H96.1981V8.09197H91.8641V15H90.9951Z" fill="#444444"/>
<path d="M99.2451 15V7.29997H100.114V10.721H104.558V7.29997H105.427V15H104.558V11.535H100.114V15H99.2451Z" fill="#444444"/>
<path d="M114.005 13.966C113.264 14.7433 112.322 15.132 111.178 15.132C110.034 15.132 109.095 14.7433 108.362 13.966C107.628 13.1886 107.262 12.25 107.262 11.15C107.262 10.0573 107.632 9.1223 108.373 8.34497C109.113 7.5603 110.056 7.16797 111.2 7.16797C112.344 7.16797 113.282 7.55664 114.016 8.33397C114.749 9.1113 115.116 10.05 115.116 11.15C115.116 12.2426 114.745 13.1813 114.005 13.966ZM109.022 13.405C109.601 14.021 110.327 14.329 111.2 14.329C112.072 14.329 112.791 14.0246 113.356 13.416C113.928 12.8 114.214 12.0446 114.214 11.15C114.214 10.2626 113.924 9.51097 113.345 8.89497C112.773 8.27897 112.05 7.97097 111.178 7.97097C110.305 7.97097 109.583 8.27897 109.011 8.89497C108.446 9.50364 108.164 10.2553 108.164 11.15C108.164 12.0373 108.45 12.789 109.022 13.405Z" fill="#444444"/>
<path d="M120.246 15V7.29997H123.524C124.426 7.29997 125.097 7.5273 125.537 7.98197C125.867 8.32664 126.032 8.74464 126.032 9.23597C126.032 10.072 125.625 10.666 124.811 11.018C125.911 11.348 126.461 11.975 126.461 12.899C126.461 13.5516 126.208 14.065 125.702 14.439C125.196 14.813 124.518 15 123.667 15H120.246ZM121.104 14.219H123.689C124.276 14.219 124.738 14.098 125.075 13.856C125.412 13.6066 125.581 13.262 125.581 12.822C125.581 12.3966 125.405 12.0703 125.053 11.843C124.708 11.6156 124.202 11.502 123.535 11.502H121.104V14.219ZM121.104 10.732H123.381C123.916 10.732 124.345 10.611 124.668 10.369C124.991 10.127 125.152 9.7823 125.152 9.33497C125.152 8.9463 125.002 8.64197 124.701 8.42197C124.408 8.19464 123.99 8.08097 123.447 8.08097H121.104V10.732Z" fill="#444444"/>
</svg>
