<svg width="260" height="80" viewBox="0 0 260 80" fill="none" xmlns="http://www.w3.org/2000/svg">
<path d="M103.458 35V27.188H100.476V25.2H108.596V27.188H105.614V35H103.458ZM114.398 30.38L116.764 25.2H119.102L115.336 32.774C114.916 33.614 114.449 34.2207 113.936 34.594C113.432 34.9673 112.83 35.154 112.13 35.154C111.393 35.154 110.688 34.9627 110.016 34.58L110.856 32.998C111.211 33.2127 111.598 33.32 112.018 33.32C112.503 33.32 112.914 33.0587 113.25 32.536L109.33 25.2H111.738L114.398 30.38ZM122.817 35V27.188H119.835V25.2H127.955V27.188H124.973V35H122.817ZM142.253 25.2V35H140.125V28.574L135.841 35H133.811V25.2H135.939V31.626L140.251 25.2H142.253ZM151.091 35V27.188H148.109V25.2H156.229V27.188H153.247V35H151.091ZM157.047 35L161.247 25.13H163.235L167.435 35H165.181L164.285 32.802H160.141L159.245 35H157.047ZM160.911 30.898H163.515L162.213 27.72L160.911 30.898ZM168.947 35V25.2H171.271L173.847 29.344L176.423 25.2H178.747V35H176.605V28.602L173.847 32.788H173.791L171.061 28.644V35H168.947ZM184.823 31.654V29.666H195.995V31.654H184.823ZM103.458 56V48.188H100.476V46.2H108.596V48.188H105.614V56H103.458ZM110.254 56V46.2H114.804C115.933 46.2 116.787 46.4893 117.366 47.068C117.814 47.516 118.038 48.0807 118.038 48.762C118.038 49.686 117.609 50.3907 116.75 50.876C117.357 51.1093 117.814 51.4173 118.122 51.8C118.43 52.1733 118.584 52.6773 118.584 53.312C118.584 54.1893 118.257 54.8567 117.604 55.314C116.951 55.7713 116.055 56 114.916 56H110.254ZM112.354 50.162H114.342C115.378 50.162 115.896 49.8073 115.896 49.098C115.896 48.7713 115.775 48.524 115.532 48.356C115.289 48.1787 114.939 48.09 114.482 48.09H112.354V50.162ZM112.354 54.11H114.916C115.933 54.11 116.442 53.746 116.442 53.018C116.442 52.3087 115.91 51.954 114.846 51.954H112.354V54.11ZM128.842 54.698C127.852 55.678 126.611 56.168 125.118 56.168C123.624 56.168 122.383 55.678 121.394 54.698C120.414 53.718 119.924 52.5187 119.924 51.1C119.924 49.6907 120.418 48.496 121.408 47.516C122.406 46.5267 123.652 46.032 125.146 46.032C126.639 46.032 127.876 46.522 128.856 47.502C129.845 48.482 130.34 49.6813 130.34 51.1C130.34 52.5093 129.84 53.7087 128.842 54.698ZM123.018 53.284C123.578 53.8813 124.287 54.18 125.146 54.18C126.004 54.18 126.709 53.886 127.26 53.298C127.81 52.7007 128.086 51.968 128.086 51.1C128.086 50.2413 127.806 49.5133 127.246 48.916C126.686 48.3187 125.976 48.02 125.118 48.02C124.259 48.02 123.554 48.3187 123.004 48.916C122.453 49.504 122.178 50.232 122.178 51.1C122.178 51.9587 122.458 52.6867 123.018 53.284ZM140.694 46.2V56H138.566V49.574L134.282 56H132.252V46.2H134.38V52.626L138.692 46.2H140.694ZM138.09 44.898C137.68 45.2713 137.152 45.458 136.508 45.458C135.864 45.458 135.332 45.2713 134.912 44.898C134.502 44.5247 134.25 44.002 134.156 43.33L135.402 43.106C135.598 43.7313 135.967 44.044 136.508 44.044C137.05 44.044 137.418 43.7313 137.614 43.106L138.86 43.33C138.767 44.002 138.51 44.5247 138.09 44.898ZM149.406 48.146V56H147.25V46.2H154.096V48.146H149.406ZM164.059 46.2V56H161.931V49.574L157.647 56H155.617V46.2H157.745V52.626L162.057 46.2H164.059ZM165.382 58.044V54.054H166.306C166.689 53.1673 166.964 52.2293 167.132 51.24C167.3 50.2507 167.384 48.9533 167.384 47.348V46.2H174.51V54.054H175.686L175.406 58.044H173.6V56H167.468L167.328 58.044H165.382ZM172.354 48.146H169.456V49.14C169.456 50.988 169.162 52.626 168.574 54.054H172.354V48.146ZM181.389 56V46.2H189.565V56H187.409V48.146H183.545V56H181.389ZM200.4 54.698C199.411 55.678 198.17 56.168 196.676 56.168C195.183 56.168 193.942 55.678 192.952 54.698C191.972 53.718 191.482 52.5187 191.482 51.1C191.482 49.6907 191.977 48.496 192.966 47.516C193.965 46.5267 195.211 46.032 196.704 46.032C198.198 46.032 199.434 46.522 200.414 47.502C201.404 48.482 201.898 49.6813 201.898 51.1C201.898 52.5093 201.399 53.7087 200.4 54.698ZM194.576 53.284C195.136 53.8813 195.846 54.18 196.704 54.18C197.563 54.18 198.268 53.886 198.818 53.298C199.369 52.7007 199.644 51.968 199.644 51.1C199.644 50.2413 199.364 49.5133 198.804 48.916C198.244 48.3187 197.535 48.02 196.676 48.02C195.818 48.02 195.113 48.3187 194.562 48.916C194.012 49.504 193.736 50.232 193.736 51.1C193.736 51.9587 194.016 52.6867 194.576 53.284ZM210.164 48.146V56H208.008V46.2H214.854V48.146H210.164ZM224.859 54.698C223.87 55.678 222.629 56.168 221.135 56.168C219.642 56.168 218.401 55.678 217.411 54.698C216.431 53.718 215.941 52.5187 215.941 51.1C215.941 49.6907 216.436 48.496 217.425 47.516C218.424 46.5267 219.67 46.032 221.163 46.032C222.657 46.032 223.893 46.522 224.873 47.502C225.863 48.482 226.357 49.6813 226.357 51.1C226.357 52.5093 225.858 53.7087 224.859 54.698ZM219.035 53.284C219.595 53.8813 220.305 54.18 221.163 54.18C222.022 54.18 222.727 53.886 223.277 53.298C223.828 52.7007 224.103 51.968 224.103 51.1C224.103 50.2413 223.823 49.5133 223.263 48.916C222.703 48.3187 221.994 48.02 221.135 48.02C220.277 48.02 219.572 48.3187 219.021 48.916C218.471 49.504 218.195 50.232 218.195 51.1C218.195 51.9587 218.475 52.6867 219.035 53.284ZM228.27 56V46.2H232.274C233.431 46.2 234.346 46.5127 235.018 47.138C235.69 47.7633 236.026 48.5893 236.026 49.616C236.026 50.708 235.652 51.5573 234.906 52.164C234.159 52.7613 233.212 53.06 232.064 53.06H230.426V56H228.27ZM230.426 51.142H232.134C232.666 51.142 233.081 51.002 233.38 50.722C233.688 50.442 233.842 50.078 233.842 49.63C233.842 49.154 233.688 48.79 233.38 48.538C233.072 48.2767 232.642 48.146 232.092 48.146H230.426V51.142ZM236.781 56L240.981 46.13H242.969L247.169 56H244.915L244.019 53.802H239.875L238.979 56H236.781ZM240.645 51.898H243.249L241.947 48.72L240.645 51.898ZM248.682 56V46.2H251.006L253.582 50.344L256.158 46.2H258.482V56H256.34V49.602L253.582 53.788H253.526L250.796 49.644V56H248.682Z" fill="white"/>
<g clip-path="url(#clip0)">
<path fill-rule="evenodd" clip-rule="evenodd" d="M40 0C47.9113 0 55.6448 2.34596 62.2228 6.74122C68.8008 11.1365 73.9277 17.3836 76.9552 24.6927C79.9827 32.0017 80.7748 40.0444 79.2314 47.8036C77.688 55.5629 73.8784 62.6902 68.2843 68.2843C62.6902 73.8784 55.5629 77.688 47.8036 79.2314C40.0444 80.7748 32.0017 79.9827 24.6927 76.9552C17.3836 73.9277 11.1365 68.8008 6.74122 62.2228C2.34596 55.6448 0 47.9113 0 40C0 29.3913 4.21427 19.2172 11.7157 11.7157C19.2172 4.21427 29.3913 0 40 0V0ZM15.1575 30.4232C10.8213 41.0357 14.8406 58.0715 20.3053 63.915C24.3942 66.8522 32.201 68.3285 40 68.3285C47.799 68.3285 55.6058 66.8522 59.6947 63.915C65.1594 58.0715 69.1787 41.0357 64.8425 30.4232C64.5797 35.1304 60.514 40.0928 47.4126 41.3372C47.2249 43.1726 46.363 44.8731 44.9936 46.1096C43.6243 47.346 41.845 48.0305 40 48.0305C38.155 48.0305 36.3757 47.346 35.0064 46.1096C33.637 44.8731 32.7751 43.1726 32.5874 41.3372C19.486 40.0928 15.4203 35.1536 15.1575 30.4232ZM33.0899 37.8126C33.6485 36.438 34.6043 35.2612 35.8353 34.4327C37.0662 33.6043 38.5162 33.1618 40 33.1618C41.4838 33.1618 42.9338 33.6043 44.1647 34.4327C45.3957 35.2612 46.3515 36.438 46.9101 37.8126C64.1546 36.8541 64.0541 17.2367 56.1237 15.5053C53.6937 14.9766 51.2374 14.5766 48.7652 14.3072C48.4939 13.2114 47.9802 12.1904 47.2618 11.3195C46.5434 10.4486 45.6388 9.75008 44.6145 9.27536C43.1731 8.58863 41.5966 8.23227 40 8.23227C38.4034 8.23227 36.8269 8.58863 35.3855 9.27536C34.3647 9.7469 33.4622 10.4407 32.744 11.306C32.0258 12.1712 31.5102 13.1861 31.2348 14.2763C28.7626 14.5457 26.3063 14.9456 23.8763 15.4744C15.9459 17.2367 15.8531 36.8541 33.0899 37.8126ZM34.8754 13.9903C38.2881 13.7662 41.7119 13.7662 45.1246 13.9903C44.6547 13.2289 43.9723 12.6217 43.1614 12.2435C42.1705 11.785 41.0918 11.5476 40 11.5476C38.9082 11.5476 37.8295 11.785 36.8386 12.2435C36.0277 12.6217 35.3453 13.2289 34.8754 13.9903ZM28.9932 21.3101C29.0551 20.7768 28.7459 20.5758 28.2203 20.6377C27.6574 20.738 27.1466 21.0303 26.7749 21.4647C26.7214 21.5172 26.6806 21.5811 26.6555 21.6516C26.6303 21.7221 26.6215 21.7974 26.6297 21.8719C26.6379 21.9463 26.6628 22.0179 26.7027 22.0812C26.7426 22.1446 26.7963 22.1981 26.8599 22.2377C26.9758 22.114 27.0454 22.0522 27.115 22.0444C27.1845 22.0367 27.3237 22.1449 27.2928 22.3691L26.7749 27.7101C26.9817 27.8086 27.213 27.8435 27.4396 27.8106C27.7025 27.8021 27.9531 27.6975 28.144 27.5166C28.3349 27.3357 28.4528 27.091 28.4754 26.829L28.8618 22.8638C28.979 22.6427 29.145 22.4512 29.3472 22.3039C29.5495 22.1565 29.7826 22.0572 30.029 22.0135C30.4773 21.9594 30.4928 22.3304 30.4464 22.7865L30.0058 27.3469C30.2126 27.4453 30.4439 27.4802 30.6705 27.4473C30.9329 27.4372 31.1826 27.332 31.3731 27.1514C31.5637 26.9708 31.6821 26.7271 31.7063 26.4657L32.0928 22.4155C32.2141 22.2097 32.3797 22.0336 32.5775 21.8999C32.7754 21.7662 33.0006 21.6783 33.2367 21.6425C33.685 21.5884 33.7159 21.9594 33.6541 22.4155L33.3913 25.1826C33.2367 26.7749 34.0097 27.0531 34.6744 26.9527C35.5529 26.7723 36.325 26.253 36.8232 25.5072C36.8207 25.6716 36.8523 25.8347 36.9159 25.9862C36.9796 26.1377 37.0739 26.2744 37.193 26.3877C37.3121 26.501 37.4533 26.5884 37.6078 26.6444C37.7624 26.7003 37.9268 26.7237 38.0908 26.713C38.4606 26.6754 38.8172 26.5551 39.1343 26.3611C39.4514 26.1671 39.7208 25.9044 39.9227 25.5923C39.8145 25.9633 39.7295 26.3034 39.6367 26.628C37.372 27.6406 35.5092 28.4599 35.5092 30.199C35.5029 30.419 35.5412 30.6381 35.6218 30.8429C35.7024 31.0477 35.8237 31.234 35.9782 31.3908C36.1327 31.5475 36.3174 31.6713 36.5211 31.7547C36.7248 31.8382 36.9432 31.8795 37.1633 31.8763C39.5981 31.8763 40.6106 29.1865 41.2367 26.6435C41.8427 26.3575 42.4266 26.0268 42.9836 25.6541L42.7285 26.4271C42.9075 26.5656 43.1217 26.6512 43.3469 26.6744C43.606 26.7234 43.8742 26.6768 44.1016 26.5432C44.329 26.4096 44.5003 26.1981 44.5836 25.9478L45.8589 22.1758C46.0267 21.9934 46.2332 21.8509 46.4633 21.7586C46.6933 21.6663 46.9411 21.6266 47.1884 21.6425C47.6367 21.6966 47.5671 22.0599 47.4203 22.485L45.9594 26.829C46.1367 26.9705 46.3518 27.0566 46.5778 27.0763C46.8359 27.1258 47.1033 27.0803 47.3306 26.9482C47.5578 26.8161 47.7297 26.6063 47.8145 26.3575L49.113 22.4928C49.274 22.3257 49.4693 22.1956 49.6855 22.1115C49.9018 22.0274 50.1337 21.9913 50.3652 22.0058C50.8135 22.0599 50.7594 22.4232 50.5971 22.8406L49.7159 25.5072C49.1903 27.0531 49.8705 27.4783 50.5507 27.5633C51.0356 27.5705 51.5169 27.4797 51.9658 27.2965C52.4147 27.1132 52.822 26.8411 53.1633 26.4966C53.2494 26.4245 53.3047 26.3222 53.3179 26.2106C53.3251 26.1398 53.3105 26.0686 53.2759 26.0064C53.2414 25.9442 53.1886 25.8941 53.1246 25.8628C52.7032 26.209 52.1703 26.3903 51.6251 26.3729C51.3546 26.3729 51.1923 26.1642 51.3237 25.7778L52.344 22.7324C52.885 21.1865 52.0502 20.6763 51.4396 20.6068C51.0064 20.6095 50.5802 20.7163 50.1969 20.918C49.8135 21.1198 49.4842 21.4107 49.2367 21.7662C49.2876 21.6004 49.302 21.4255 49.2791 21.2536C49.2562 21.0817 49.1965 20.9167 49.1041 20.77C49.0117 20.6233 48.8886 20.4982 48.7434 20.4033C48.5983 20.3085 48.4343 20.246 48.2628 20.2203C47.837 20.2213 47.4176 20.3243 47.0397 20.5206C46.6618 20.717 46.3364 21.0009 46.0908 21.3488L46.2995 20.7536C46.485 20.2512 46.2222 19.9807 45.7353 19.9343C45.1637 19.904 44.599 20.0704 44.1353 20.4058C44.0729 20.4463 44.0203 20.5002 43.9813 20.5636C43.9422 20.6269 43.9178 20.6982 43.9096 20.7721C43.9015 20.8461 43.9099 20.9209 43.9342 20.9912C43.9585 21.0616 43.9982 21.1256 44.0502 21.1787C44.1894 21.086 44.2744 21.0396 44.344 21.0473C44.4135 21.0551 44.5217 21.1942 44.4367 21.4029L43.285 24.7343C42.6997 25.1724 42.0702 25.548 41.4068 25.8551C41.4454 25.6773 41.4918 25.4841 41.5304 25.2985L42.6899 19.8879C42.4989 19.7651 42.2752 19.7031 42.0483 19.7101C41.7859 19.6896 41.525 19.7653 41.3144 19.9233C41.1039 20.0812 40.9581 20.3104 40.9043 20.5681L40.0155 24.657C39.7395 24.9513 39.3595 25.126 38.9565 25.144C38.5082 25.144 38.4 24.8193 38.4928 24.371L39.343 20.4367C39.4667 19.9188 39.1807 19.6638 38.686 19.6638C38.1115 19.6968 37.5658 19.926 37.1401 20.313C37.0845 20.3609 37.0399 20.4202 37.0093 20.4869C36.9788 20.5536 36.9629 20.6261 36.9629 20.6995C36.9629 20.7729 36.9788 20.8454 37.0093 20.9121C37.0399 20.9788 37.0845 21.0381 37.1401 21.086C37.2638 20.9778 37.3488 20.9159 37.4106 20.9159C37.4725 20.9159 37.6039 21.0396 37.5498 21.2638L36.9082 24.0618C36.8634 24.2607 36.8298 24.462 36.8077 24.6647C36.4705 25.0965 35.9913 25.395 35.4551 25.5072C35.1845 25.5072 34.9913 25.399 35.0299 24.9971L35.3314 21.7971C35.5014 20.1662 34.5585 19.8647 33.9633 19.9343C33.5326 20.0419 33.1352 20.2541 32.8062 20.5521C32.4772 20.85 32.2269 21.2246 32.0773 21.6425C32.0866 21.4709 32.0592 21.2993 31.9968 21.1392C31.9344 20.9791 31.8385 20.8342 31.7156 20.7141C31.5926 20.5941 31.4454 20.5017 31.2838 20.4432C31.1223 20.3847 30.9501 20.3614 30.7787 20.3749C30.3647 20.4725 29.9802 20.6681 29.6574 20.9452C29.3346 21.2222 29.083 21.5727 28.9237 21.9671L28.9932 21.3411V21.3101ZM37.1787 30.686C38.1217 30.686 38.6705 29.7585 39.3662 27.5556C37.7353 28.3285 36.6145 29.001 36.6145 30.0444C36.606 30.2039 36.6603 30.3604 36.7657 30.4803C36.8712 30.6003 37.0195 30.6741 37.1787 30.686ZM38.5932 38.0522C38.5932 37.001 39.0338 36.5527 39.6754 36.5527C39.7757 36.5397 39.8777 36.5478 39.9747 36.5765C40.0717 36.6052 40.1617 36.6539 40.2388 36.7194C40.3159 36.7849 40.3785 36.8657 40.4226 36.9568C40.4667 37.0479 40.4912 37.1472 40.4947 37.2483C40.4907 37.4399 40.4356 37.6269 40.335 37.79C40.2344 37.9531 40.0921 38.0863 39.9227 38.1758C39.985 38.3145 40.0844 38.4334 40.2098 38.5193C40.3353 38.6052 40.482 38.6548 40.6338 38.6628C41.2754 38.6628 41.5845 38.2995 41.5845 37.5652C41.5845 36.5758 40.9121 35.8725 39.6444 35.8725C39.0696 35.8805 38.5206 36.113 38.1148 36.5202C37.709 36.9275 37.4785 37.4773 37.4725 38.0522C37.486 38.797 37.6683 39.5291 38.0058 40.1932C37.4416 40.3502 36.9442 40.6875 36.5897 41.1537C36.2352 41.6198 36.043 42.1892 36.0425 42.7749C36.044 43.1048 36.1146 43.4307 36.2496 43.7317C36.3845 44.0327 36.581 44.3021 36.8263 44.5227C37.0716 44.7433 37.3604 44.9101 37.674 45.0124C37.9876 45.1147 38.3192 45.1503 38.6473 45.1169C39.1291 45.1138 39.6054 45.0136 40.0476 44.8224C40.4898 44.6311 40.889 44.3528 41.2213 44.0039C41.8132 44.4855 42.4753 44.8739 43.1845 45.1556C43.6406 45.2947 44.2512 44.7845 44.2512 43.7024C43.465 43.4685 42.7231 43.1054 42.056 42.628C42.2208 42.1109 42.3017 41.5707 42.2957 41.028C42.287 40.7477 42.2559 40.4686 42.2029 40.1932C42.6566 40.3275 43.1228 40.4156 43.5942 40.456C44.4444 40.456 44.9082 39.6058 44.5063 39.0802C43.7333 39.4821 42.9604 39.0802 41.9942 39.0802C41.028 39.0802 40.5101 39.7913 40.9507 40.3478C41.0151 40.2694 41.0967 40.207 41.1893 40.1654C41.2818 40.1239 41.3827 40.1043 41.4841 40.1082C41.4958 40.291 41.4958 40.4743 41.4841 40.657C41.4869 41.1458 41.4085 41.6316 41.2522 42.0947C39.8454 40.9971 38.5546 39.5208 38.5546 38.0676L38.5932 38.0522ZM38.8638 44.058C39.4646 44.0555 40.0409 43.82 40.4715 43.401C39.6495 42.6434 38.9344 41.7775 38.3459 40.8271C38.0823 41.0235 37.8667 41.2772 37.7154 41.5691C37.5641 41.861 37.481 42.1834 37.4725 42.5121C37.4425 42.7087 37.4566 42.9096 37.5136 43.1002C37.5707 43.2908 37.6693 43.4663 37.8024 43.6142C37.9355 43.762 38.0997 43.8785 38.2832 43.9553C38.4668 44.032 38.665 44.0671 38.8638 44.058ZM26.6203 50.5739C26.9295 49.9092 26.6203 49.515 25.9633 49.3681C25.187 49.2489 24.3932 49.3989 23.714 49.7932C23.6287 49.8412 23.5544 49.9066 23.4961 49.9852C23.4377 50.0638 23.3967 50.1538 23.3755 50.2494C23.3543 50.345 23.3536 50.4439 23.3733 50.5398C23.393 50.6357 23.4327 50.7263 23.4899 50.8058C23.6908 50.6899 23.8145 50.6435 23.9072 50.6667C24 50.6899 24.1159 50.8831 23.9923 51.1614L20.9005 57.8628C21.1238 58.0806 21.4059 58.2284 21.7121 58.2879C22.054 58.3961 22.4234 58.3776 22.7527 58.2356C23.0821 58.0937 23.3492 57.8378 23.5053 57.515L25.7855 52.5449C26.036 52.3102 26.3369 52.1359 26.6651 52.0354C26.9934 51.9349 27.3403 51.9109 27.6792 51.9652C28.2821 52.1043 28.1353 52.5836 27.8802 53.1478L25.2599 58.8676C25.4719 59.0815 25.7397 59.2314 26.0329 59.3005C26.3747 59.4087 26.7442 59.3901 27.0735 59.2482C27.4028 59.1062 27.67 58.8504 27.8261 58.5275L30.1449 53.4493C30.3885 53.2445 30.6735 53.095 30.9804 53.0109C31.2873 52.9268 31.6088 52.9103 31.9227 52.9623C32.5333 53.0937 32.3787 53.5729 32.1237 54.1372L30.5778 57.6077C29.6502 59.656 30.5159 60.3285 31.428 60.5295C32.0881 60.6099 32.7577 60.5562 33.3966 60.3716C34.0354 60.1869 34.6304 59.8752 35.1459 59.4551C35.2151 59.4036 35.2752 59.3409 35.3237 59.2696C35.4192 59.7837 35.6952 60.2469 36.1019 60.5756C36.5086 60.9044 37.0193 61.0771 37.542 61.0628C38.6164 61.0628 39.6058 60.2899 40.3942 59.1614C40.3942 60.6454 41.2599 61.0628 42.1411 61.0628C43.2808 60.9105 44.331 60.3635 45.1092 59.5169C45.4106 60.5604 46.029 61.0628 46.6551 60.9005C47.2812 60.7382 48.1237 59.9034 48.6957 58.3111C49.1473 56.9375 49.4378 55.516 49.5614 54.0754L50.628 59.1768C50.8135 60.0425 51.5169 60.1585 52.344 59.7797L54.3691 53.2328L54.5005 56.4251C54.5778 58.914 55.8299 59.1768 56.7498 59.0068C57.6696 58.8367 58.9217 57.7391 59.6097 56.5952C59.6897 56.466 59.7225 56.313 59.7024 56.1623C59.6816 56.0664 59.6332 55.9788 59.5632 55.9101C59.4931 55.8414 59.4045 55.7947 59.3082 55.7758C58.8892 56.3985 58.2614 56.8508 57.5382 57.0512C57.0589 57.144 56.7652 56.8502 56.7652 55.7913L56.4947 49.5227C56.1954 49.414 55.8725 49.3873 55.5594 49.4454C54.9024 49.5691 54.5469 49.9556 54.2145 50.9913L52.313 56.7188L50.9217 50.4889C49.9864 50.4288 49.0473 50.499 48.1314 50.6976C47.0802 50.8908 46.1681 51.5169 46.3768 52.6609C46.4518 53.0091 46.6527 53.3174 46.9411 53.5266C47.4019 52.8591 48.0974 52.3899 48.8889 52.2126C48.4715 57.4068 47.7217 58.5353 46.8715 59.3005C46.7806 58.803 46.7964 58.2919 46.9179 57.801C46.6744 57.6967 46.4083 57.6568 46.1449 57.685C45.6039 57.7855 45.1401 58.0328 45.0551 58.5739C44.5711 58.9899 43.9676 59.2416 43.3314 59.2928C42.8444 59.2928 42.5585 58.9527 42.7672 57.9015L44.0812 51.7179C43.8178 51.5514 43.5115 51.4654 43.2 51.4705C42.9603 51.4636 42.7219 51.5091 42.5016 51.6039C42.2813 51.6987 42.0844 51.8405 41.9246 52.0193C41.3832 51.5732 40.6925 51.3494 39.9923 51.3932C37.3797 51.3932 35.2618 54.6628 35.2618 57.9478C35.2511 58.1486 35.2511 58.3499 35.2618 58.5507C34.6335 58.96 33.8801 59.1326 33.1362 59.0377C32.7729 58.9527 32.5797 58.6821 32.8116 58.172L34.5971 54.1063C35.5324 52.058 34.4812 51.2541 33.6541 51.0686C32.5952 50.8367 31.5053 51.4242 30.4928 52.3517C30.5805 52.1329 30.6207 51.898 30.6107 51.6625C30.6007 51.427 30.5407 51.1963 30.4347 50.9857C30.3287 50.7752 30.1791 50.5896 29.9959 50.4413C29.8127 50.293 29.6 50.1854 29.372 50.1256C28.3285 49.8937 27.2464 50.4425 26.2802 51.3546L26.6512 50.5816L26.6203 50.5739ZM40.4328 57.971L41.4841 52.9391C41.2016 52.8373 40.9031 52.7875 40.6029 52.7923C38.3304 52.7923 37.5111 55.7527 37.5111 57.801C37.5111 58.7362 37.944 59.1536 38.5237 59.1536C38.908 59.1047 39.2774 58.9738 39.6068 58.7698C39.9362 58.5658 40.2179 58.2934 40.4328 57.971Z" fill="white"/>
</g>
<defs>
<clipPath id="clip0">
<rect width="80" height="80" fill="white"/>
</clipPath>
</defs>
</svg>
