<svg width="10" height="12" viewBox="0 0 10 12" fill="none" xmlns="http://www.w3.org/2000/svg">
<path fill-rule="evenodd" clip-rule="evenodd" d="M5 11.6638L5.32886 11.3766C8.09435 8.96186 9.5 6.85338 9.5 5C9.5 2.37533 7.45147 0.5 5 0.5C2.54853 0.5 0.5 2.37533 0.5 5C0.5 6.85338 1.90565 8.96186 4.67114 11.3766L5 11.6638ZM5 10.3317C2.65331 8.21677 1.5 6.42462 1.5 5C1.5 2.9483 3.08206 1.5 5 1.5C6.91794 1.5 8.5 2.9483 8.5 5C8.5 6.42462 7.34669 8.21677 5 10.3317ZM5 2.5C6.38071 2.5 7.5 3.61929 7.5 5C7.5 6.38071 6.38071 7.5 5 7.5C3.61929 7.5 2.5 6.38071 2.5 5C2.5 3.61929 3.61929 2.5 5 2.5ZM3.5 5C3.5 4.17157 4.17157 3.5 5 3.5C5.82843 3.5 6.5 4.17157 6.5 5C6.5 5.82843 5.82843 6.5 5 6.5C4.17157 6.5 3.5 5.82843 3.5 5Z" fill="#2CB049"/>
</svg>
