<svg width="170" height="46" viewBox="0 0 170 46" fill="none" xmlns="http://www.w3.org/2000/svg">
<path fill-rule="evenodd" clip-rule="evenodd" d="M1.3759 16.68C-1.87934 24.6637 1.14069 37.4697 5.24267 41.872C8.30504 44.0803 14.1522 45.175 20.0041 45.175C25.856 45.175 31.7032 44.0708 34.7656 41.872C38.8676 37.4697 41.8688 24.6637 38.6324 16.68C38.4348 20.2236 35.3866 23.9512 25.5644 24.8902C25.4254 26.2724 24.7796 27.5536 23.7522 28.4854C22.7249 29.4172 21.3892 29.9331 20.0041 29.9331C18.6191 29.9331 17.2834 29.4172 16.2561 28.4854C15.2287 27.5536 14.5829 26.2724 14.4439 24.8902C4.62173 23.9465 1.57347 20.2236 1.3759 16.68ZM14.8249 22.2384C1.88394 21.5212 1.97332 6.76642 7.9146 5.45939C9.73744 5.0651 11.5791 4.7643 13.4325 4.55816C13.6366 3.73521 14.0224 2.96875 14.5614 2.3154C15.1004 1.66205 15.7789 1.13848 16.5466 0.783364C17.6267 0.267618 18.8079 0 20.0041 0C21.2004 0 22.3816 0.267618 23.4617 0.783364C24.2299 1.13705 24.9086 1.66024 25.447 2.31387C25.9854 2.9675 26.3697 3.73469 26.5711 4.55816C28.4261 4.76392 30.2693 5.06473 32.0937 5.45939C38.035 6.76642 38.1055 21.5212 25.1834 22.2384C24.7639 21.2071 24.0477 20.3244 23.1261 19.7032C22.2045 19.0819 21.1193 18.75 20.0088 18.75C18.8984 18.75 17.8132 19.0819 16.8916 19.7032C15.9699 20.3244 15.2537 21.2071 14.8343 22.2384H14.8249ZM16.1609 4.30808C18.7204 4.14293 21.2879 4.14293 23.8474 4.30808C23.494 3.73552 22.9825 3.27819 22.375 2.99162C21.6311 2.64974 20.8224 2.47277 20.0041 2.47277C19.1859 2.47277 18.3772 2.64974 17.6333 2.99162C17.0258 3.27819 16.5143 3.73552 16.1609 4.30808ZM11.7626 9.824L11.7155 10.2959C11.8342 9.99967 12.0223 9.73654 12.2638 9.52874C12.5054 9.32093 12.7933 9.17458 13.1032 9.10207C13.2311 9.09197 13.3596 9.10916 13.4803 9.1525C13.6011 9.19583 13.7113 9.26433 13.8038 9.35349C13.8962 9.44265 13.9688 9.55044 14.0167 9.66976C14.0646 9.78909 14.0867 9.91724 14.0817 10.0458C14.4392 9.38518 14.8955 8.88502 15.4929 8.81896C15.9633 8.76234 16.6454 8.99355 16.5184 10.2345L16.2879 12.6409C16.2597 12.9429 16.4102 13.0515 16.6125 13.0279C17.0143 12.9426 17.3727 12.7168 17.6239 12.3909C17.6239 12.2446 17.6662 12.0889 17.6991 11.919L18.1695 9.81456C18.2119 9.64942 18.1695 9.55977 18.0661 9.55977C17.9626 9.55977 17.9579 9.59751 17.8638 9.68245C17.8237 9.64702 17.7917 9.60346 17.7697 9.55465C17.7477 9.50583 17.7364 9.45289 17.7364 9.39934C17.7364 9.34578 17.7477 9.29284 17.7697 9.24403C17.7917 9.19522 17.8237 9.15165 17.8638 9.11623C18.1822 8.83333 18.5868 8.667 19.0116 8.64438C19.3785 8.64438 19.5949 8.81896 19.482 9.2106L18.8469 12.1691C18.7764 12.49 18.8469 12.7353 19.195 12.7353C19.3445 12.7295 19.4913 12.694 19.627 12.6308C19.7627 12.5677 19.8845 12.4781 19.9853 12.3673L20.7003 9.29553C20.7399 9.10033 20.8493 8.92638 21.0078 8.80644C21.1664 8.68651 21.3632 8.62887 21.5612 8.64438C21.7279 8.64334 21.8913 8.69088 22.0316 8.78121L21.1708 12.8486C21.1378 12.9948 21.1096 13.1364 21.0767 13.2685C21.5759 13.0386 22.0491 12.7554 22.4879 12.4239L23.3488 9.86175C23.4052 9.70604 23.3488 9.60695 23.2735 9.59751C23.1982 9.58808 23.1559 9.62582 23.0571 9.6966C23.0209 9.65709 22.9936 9.61019 22.9771 9.55912C22.9606 9.50805 22.9553 9.45401 22.9615 9.40069C22.9678 9.34737 22.9854 9.29604 23.0133 9.2502C23.0412 9.20436 23.0786 9.1651 23.123 9.1351C23.4676 8.87999 23.8901 8.7532 24.3178 8.77649C24.6847 8.81896 24.8776 9.01714 24.7412 9.39462L24.5859 9.83816C25.0563 9.28609 25.6302 8.92749 26.2088 8.99355C26.3369 9.01184 26.4595 9.05766 26.5683 9.12786C26.6771 9.19807 26.7695 9.291 26.8391 9.40031C26.9088 9.50962 26.9541 9.63274 26.972 9.76124C26.9899 9.88974 26.9799 10.0206 26.9427 10.1449C27.4413 9.57864 28.0011 9.20116 28.5938 9.26722C29.0642 9.32384 29.6758 9.70604 29.2759 10.8668L28.5045 13.16C28.4104 13.4478 28.5045 13.5846 28.735 13.6082C29.1378 13.6173 29.5309 13.4837 29.8451 13.2308C29.893 13.2551 29.9325 13.2933 29.9585 13.3404C29.9845 13.3875 29.9958 13.4414 29.9909 13.495C29.9775 13.5786 29.936 13.6552 29.8733 13.712C29.6172 13.9698 29.3119 14.1733 28.9757 14.3103C28.6395 14.4473 28.2793 14.515 27.9164 14.5095C27.4084 14.4481 26.8956 14.132 27.2861 12.9665L27.9494 10.9848C28.067 10.6686 28.1093 10.3949 27.7753 10.3525C27.6014 10.3431 27.4275 10.3711 27.2653 10.4346C27.103 10.498 26.9562 10.5955 26.8345 10.7205L25.8749 13.6082C25.8158 13.8027 25.6868 13.9683 25.513 14.0729C25.3392 14.1775 25.1329 14.2137 24.934 14.1745C24.763 14.1559 24.6003 14.0906 24.4636 13.9857L25.5644 10.7205C25.6726 10.3997 25.7243 10.126 25.3856 10.0882C25.1982 10.0785 25.011 10.1117 24.8382 10.1852C24.6654 10.2588 24.5116 10.3709 24.3884 10.5129L23.4475 13.344C23.3847 13.5347 23.254 13.6955 23.0805 13.7956C22.9069 13.8957 22.7026 13.9281 22.5067 13.8866C22.3354 13.8724 22.172 13.8085 22.0363 13.7026L22.2292 13.1269C21.8125 13.408 21.3754 13.6572 20.9214 13.8725C20.451 15.7835 19.6937 17.8077 17.8685 17.8077C17.7028 17.8098 17.5385 17.7779 17.3856 17.7142C17.2326 17.6504 17.0942 17.556 16.9789 17.4368C16.8635 17.3175 16.7736 17.1759 16.7147 17.0207C16.6557 16.8654 16.629 16.6997 16.636 16.5337C16.636 15.2267 18.0472 14.6133 19.7313 13.8489C19.8019 13.6035 19.863 13.3487 19.9477 13.0703C19.7966 13.3051 19.5946 13.5026 19.3567 13.648C19.1189 13.7934 18.8513 13.8831 18.5741 13.9102C18.4523 13.9174 18.3303 13.8993 18.2157 13.857C18.1012 13.8148 17.9965 13.7494 17.9082 13.6649C17.82 13.5803 17.75 13.4785 17.7027 13.3656C17.6554 13.2528 17.6318 13.1314 17.6333 13.009C17.2475 13.5645 16.6596 13.9458 15.9962 14.0706C15.4882 14.132 14.919 13.9385 15.0554 12.7117L15.253 10.6309C15.2953 10.2959 15.253 10.0175 14.9378 10.0599C14.7677 10.09 14.6061 10.1566 14.464 10.2552C14.3219 10.3537 14.2027 10.4819 14.1146 10.6309L13.8277 13.6743C13.8074 13.8719 13.7169 14.0556 13.5726 14.1917C13.4283 14.3277 13.24 14.4071 13.0421 14.4151C12.8736 14.4383 12.702 14.4121 12.5481 14.3396L12.8774 10.9093C12.9104 10.5742 12.9009 10.2959 12.567 10.3336C12.382 10.3664 12.2067 10.4408 12.0544 10.5511C11.9021 10.6614 11.7766 10.8048 11.6873 10.9706L11.405 13.9527C11.385 14.1508 11.2946 14.335 11.1504 14.4719C11.0062 14.6087 10.8178 14.689 10.6195 14.6982C10.4583 14.714 10.2959 14.6863 10.149 14.618L10.5301 10.6026C10.5536 10.4327 10.4924 10.3478 10.3984 10.3572C10.3043 10.3666 10.2949 10.4138 10.2102 10.5035C10.1617 10.4759 10.12 10.4379 10.0879 10.3922C10.0559 10.3465 10.0343 10.2942 10.0249 10.2391C10.0154 10.184 10.0183 10.1275 10.0333 10.0737C10.0482 10.0199 10.0749 9.97004 10.1114 9.92781C10.3922 9.60191 10.7756 9.38213 11.1981 9.30497C11.565 9.2625 11.7955 9.41349 11.7484 9.80985L11.7626 9.824ZM17.8779 16.8782C17.7623 16.8653 17.6555 16.81 17.5782 16.7229C17.5009 16.6357 17.4585 16.523 17.4592 16.4063C17.4592 15.623 18.2966 15.1276 19.5196 14.5189C18.9928 16.1751 18.5788 16.8782 17.8779 16.8782ZM18.941 22.4177C18.941 23.5124 19.9101 24.6212 20.9591 25.4469C21.0777 25.0976 21.1366 24.7307 21.1331 24.3617C21.1331 24.2244 21.1237 24.0872 21.1049 23.9512C21.0288 23.9502 20.9535 23.9662 20.8843 23.998C20.8151 24.0298 20.7539 24.0767 20.705 24.1352C20.3758 23.7105 20.7333 23.1915 21.4906 23.1915C22.248 23.1915 22.7984 23.4935 23.3723 23.1915C23.6733 23.5831 23.3252 24.2249 22.6855 24.2249C22.3312 24.1918 21.9812 24.1223 21.6412 24.0172C21.6819 24.2288 21.704 24.4435 21.707 24.659C21.7113 25.0658 21.6494 25.4706 21.5236 25.8575C22.0219 26.2196 22.5789 26.4926 23.17 26.6643C23.17 27.4806 22.6996 27.8675 22.375 27.759C21.8468 27.5579 21.3544 27.2727 20.9167 26.9144C20.6671 27.177 20.3672 27.3864 20.035 27.5299C19.7028 27.6734 19.3451 27.7481 18.9833 27.7496C17.6709 27.7496 17.0359 26.8766 17.0359 25.9613C17.0369 25.5206 17.1812 25.0924 17.447 24.7415C17.7127 24.3907 18.0853 24.1364 18.5082 24.0172C18.2594 23.5267 18.1228 22.9867 18.1084 22.4365C18.1084 22.219 18.1511 22.0037 18.2341 21.8027C18.317 21.6018 18.4387 21.4192 18.592 21.2654C18.7453 21.1116 18.9273 20.9897 19.1277 20.9064C19.328 20.8232 19.5427 20.7803 19.7595 20.7803C20.7003 20.7803 21.1708 21.3088 21.1708 22.0543C21.1708 22.6017 20.9403 22.8801 20.4557 22.8801C20.3428 22.8727 20.2341 22.8345 20.1412 22.7697C20.0483 22.7048 19.9749 22.6157 19.9289 22.512C20.0562 22.445 20.1632 22.3448 20.2386 22.2219C20.3139 22.099 20.3548 21.958 20.3569 21.8137C20.3548 21.739 20.3372 21.6656 20.3054 21.598C20.2737 21.5304 20.2283 21.4702 20.1722 21.421C20.1161 21.3719 20.0505 21.3348 19.9795 21.3123C19.9085 21.2897 19.8336 21.2821 19.7595 21.2899C19.2891 21.2899 18.9457 21.6297 18.9457 22.4177H18.941ZM19.148 26.9144C19.0043 26.9198 18.8611 26.8943 18.7281 26.8396C18.5951 26.7848 18.4753 26.7022 18.3768 26.5971C18.2783 26.492 18.2034 26.367 18.1571 26.2305C18.1108 26.094 18.0942 25.9491 18.1084 25.8055C18.1069 25.5489 18.1658 25.2955 18.2802 25.066C18.3946 24.8364 18.5614 24.6372 18.767 24.4844C19.204 25.2008 19.7392 25.852 20.3569 26.419C20.0296 26.7266 19.5965 26.8957 19.148 26.8908V26.9144ZM9.97029 31.8358L9.69745 32.4256C10.4407 31.7367 11.2498 31.3262 12.0495 31.4819C12.614 31.6046 13.1456 32.1897 12.8868 33.157C13.6489 32.4586 14.4674 32.0198 15.2389 32.2133C15.8551 32.3501 16.6501 32.9541 15.9445 34.4923L14.585 37.5169C14.411 37.8943 14.5568 38.1019 14.8296 38.1633C15.388 38.236 15.9538 38.1054 16.4243 37.7952C16.4069 37.6386 16.3991 37.481 16.4008 37.3234C16.4008 34.8509 17.9908 32.3973 19.943 32.3973C20.4682 32.3641 20.9863 32.5328 21.3918 32.8691C21.5108 32.7379 21.6562 32.6335 21.8184 32.5627C21.9806 32.492 22.1558 32.4565 22.3327 32.4586C22.5653 32.4549 22.7941 32.5188 22.9912 32.6426L22.0081 37.314C21.8387 38.1019 22.0645 38.3567 22.4315 38.3567C22.9073 38.3198 23.3589 38.1313 23.7204 37.8188C23.767 37.6329 23.8724 37.4672 24.0208 37.3464C24.1692 37.2256 24.3526 37.1563 24.5436 37.1488C24.7487 37.1181 24.9583 37.1493 25.1457 37.2385C25.0551 37.606 25.0422 37.9886 25.1081 38.3615C25.7478 37.7858 26.3076 36.9459 26.6228 33.0343C26.0277 33.164 25.5044 33.5167 25.1598 34.0204C24.9462 33.8606 24.7962 33.6298 24.7365 33.3693C24.5812 32.5058 25.268 32.034 26.0583 31.8924C26.7441 31.7447 27.4469 31.6923 28.1469 31.7367L29.1865 36.4222L30.5978 32.1142C30.8471 31.3639 31.1105 31.0714 31.6045 30.9817C31.8389 30.9373 32.081 30.9568 32.3054 31.0384L32.5076 35.7569C32.5406 36.5543 32.7475 36.7713 33.1098 36.7006C33.6498 36.5542 34.1201 36.2196 34.4363 35.7569C34.5085 35.7701 34.5752 35.8045 34.628 35.8557C34.6807 35.907 34.7172 35.9727 34.7327 36.0447C34.7506 36.1597 34.7255 36.2774 34.6621 36.375C34.1494 37.229 33.2509 38.05 32.5218 38.1869C31.7926 38.3237 30.8894 38.1161 30.833 36.2429L30.7624 33.8034L29.2853 38.7437C28.6644 39.0268 28.1375 38.9371 28.0011 38.2718L27.2014 34.464C27.1093 35.5489 26.8914 36.6194 26.5522 37.6537C26.1242 38.8475 25.5456 39.4892 25.0187 39.5977C24.4919 39.7062 24.0779 39.3429 23.8333 38.5596C23.1794 39.2108 22.2903 39.7345 21.6082 39.7345C20.9261 39.7345 20.2864 39.4231 20.3005 38.319C19.7078 39.1495 18.9645 39.7345 18.1601 39.7345C17.7624 39.7384 17.3769 39.5968 17.0756 39.3363C16.7744 39.0758 16.5779 38.7142 16.5231 38.319C16.4865 38.374 16.4402 38.422 16.3867 38.4606C15.5823 39.0456 14.505 39.475 13.6019 39.2674C12.9151 39.1164 12.2659 38.6115 12.9621 37.0733L14.1475 34.464C14.3404 34.044 14.4486 33.6807 13.997 33.5816C13.761 33.5435 13.5197 33.5566 13.2892 33.6201C13.0587 33.6836 12.8445 33.796 12.661 33.9497L10.9252 37.7669C10.8118 38.0151 10.6124 38.2136 10.3641 38.3256C10.1159 38.4375 9.83551 38.4553 9.57515 38.3756C9.34735 38.3304 9.13791 38.2188 8.97302 38.0548L10.9346 33.7515C11.1228 33.3315 11.2357 32.9635 10.7841 32.8644C10.5315 32.8259 10.2735 32.845 10.0292 32.9201C9.78486 32.9953 9.56056 33.1246 9.37287 33.2985L7.66528 37.0403C7.55195 37.2875 7.35335 37.4852 7.10611 37.5971C6.85886 37.7089 6.57964 37.7274 6.31991 37.649C6.09144 37.6018 5.88101 37.4905 5.71308 37.3281L7.99927 32.2793C8.09806 32.067 8.06513 31.9302 7.93812 31.9018C7.81111 31.8735 7.77818 31.9254 7.62765 32.0057C7.58383 31.9467 7.55324 31.879 7.53798 31.8071C7.52272 31.7352 7.52315 31.6608 7.53924 31.5891C7.55532 31.5174 7.58669 31.45 7.63118 31.3916C7.67567 31.3332 7.73224 31.2851 7.797 31.2507C8.30489 30.9527 8.89963 30.8394 9.48106 30.9298C9.975 31.0431 10.2055 31.3356 9.95148 31.8358H9.97029ZM20.3193 37.38C20.1599 37.6195 19.9517 37.8223 19.7085 37.9752C19.4652 38.1281 19.1924 38.2276 18.9081 38.2671C18.4706 38.2671 18.146 37.9557 18.146 37.2526C18.146 35.7144 18.7528 33.4778 20.4557 33.4778C20.6802 33.4759 20.9033 33.5142 21.1143 33.5911L20.3193 37.38Z" fill="white"/>
<path fill-rule="evenodd" clip-rule="evenodd" d="M1.3759 16.68C-1.87934 24.6637 1.14069 37.4697 5.24267 41.872C5.36027 41.957 5.48728 42.0419 5.619 42.1268C9.49985 41.7931 13.2566 40.5902 16.6125 38.6068C16.5778 38.5109 16.5479 38.4133 16.5231 38.3143C16.4865 38.3693 16.4402 38.4172 16.3867 38.4558C15.5823 39.0409 14.505 39.4703 13.6019 39.2627C12.9151 39.1117 12.2659 38.6068 12.9621 37.0686L14.1475 34.464C14.3404 34.044 14.4486 33.6807 13.997 33.5816C13.761 33.5435 13.5197 33.5566 13.2892 33.6201C13.0587 33.6836 12.8445 33.796 12.661 33.9497L10.9252 37.7669C10.8118 38.0151 10.6124 38.2136 10.3641 38.3256C10.1159 38.4375 9.83551 38.4553 9.57515 38.3756C9.34735 38.3304 9.13791 38.2188 8.97302 38.0548L10.9346 33.7515C11.1228 33.3316 11.2357 32.9635 10.7841 32.8644C10.5315 32.8259 10.2735 32.845 10.0292 32.9201C9.78486 32.9953 9.56056 33.1246 9.37287 33.2985L7.66528 37.0403C7.55195 37.2875 7.35335 37.4852 7.10611 37.5971C6.85886 37.7089 6.57964 37.7274 6.31991 37.649C6.09144 37.6018 5.88101 37.4905 5.71308 37.3281L7.99927 32.2793C8.09806 32.067 8.06513 31.9302 7.93812 31.9018C7.81111 31.8735 7.77818 31.9254 7.62765 32.0057C7.58383 31.9467 7.55324 31.879 7.53798 31.8071C7.52272 31.7352 7.52315 31.6608 7.53924 31.5891C7.55532 31.5174 7.58669 31.45 7.63118 31.3916C7.67567 31.3332 7.73224 31.2851 7.797 31.2507C8.30489 30.9527 8.89963 30.8394 9.48106 30.9298C9.975 31.0431 10.2055 31.3356 9.95148 31.8358L9.67864 32.4256C10.4219 31.7367 11.231 31.3262 12.0307 31.4819C12.5952 31.6046 13.1267 32.1897 12.868 33.157C13.6301 32.4586 14.4486 32.0198 15.2201 32.2133C15.8363 32.3501 16.6313 32.9541 15.9257 34.4923L14.585 37.5169C14.411 37.8943 14.5568 38.1019 14.8296 38.1633C15.388 38.236 15.9538 38.1054 16.4243 37.7952C16.407 37.6386 16.3991 37.481 16.4008 37.3234C16.4008 34.8509 17.9908 32.3973 19.943 32.3973C20.4682 32.3641 20.9863 32.5328 21.3919 32.8691C21.5108 32.7379 21.6562 32.6335 21.8184 32.5627C21.9806 32.492 22.1558 32.4565 22.3327 32.4586C22.5653 32.4549 22.7941 32.5188 22.9912 32.6427L22.8407 33.5203C25.1724 30.9137 26.9606 27.8655 28.0999 24.5551C27.3096 24.6873 26.4676 24.7958 25.5644 24.8807C25.4254 26.263 24.7796 27.5442 23.7522 28.476C22.7249 29.4077 21.3892 29.9236 20.0041 29.9236C18.6191 29.9236 17.2834 29.4077 16.2561 28.476C15.2287 27.5442 14.5829 26.263 14.4439 24.8807C4.62173 23.937 1.57347 20.2141 1.3759 16.6705V16.68ZM26.9897 4.60535C27.7062 6.10914 28.278 7.67807 28.6973 9.29081H28.5797C27.987 9.22475 27.4272 9.60223 26.9286 10.1685C26.9715 10.0422 26.9859 9.90792 26.9708 9.77537C26.9557 9.64283 26.9114 9.5153 26.8412 9.40199C26.771 9.28868 26.6766 9.19242 26.5648 9.12016C26.453 9.04789 26.3266 9.00142 26.1947 8.98411C25.6161 8.91805 25.0611 9.27666 24.5718 9.82872L24.7271 9.38518C24.8635 9.0077 24.6706 8.80953 24.3037 8.76706C23.876 8.74377 23.4535 8.87056 23.1088 9.12566C23.0636 9.15631 23.0256 9.19659 22.9976 9.24363C22.9696 9.29068 22.9523 9.34333 22.947 9.39784C22.9416 9.45235 22.9482 9.50738 22.9664 9.55902C22.9847 9.61066 23.014 9.65763 23.0524 9.6966C23.1512 9.62111 23.217 9.58808 23.2688 9.59751C23.3205 9.60695 23.4005 9.70604 23.3441 9.86175L22.4832 12.4239C22.0444 12.7554 21.5712 13.0386 21.072 13.2685C21.1049 13.1364 21.1331 12.9948 21.1661 12.8486L22.0363 8.78121C21.896 8.69088 21.7326 8.64334 21.5659 8.64438C21.3671 8.62766 21.1692 8.68474 21.0096 8.80478C20.8501 8.92482 20.74 9.09946 20.7003 9.29553L20.0324 12.3673C19.9315 12.4781 19.8097 12.5677 19.674 12.6308C19.5384 12.694 19.3915 12.7295 19.2421 12.7353C18.9081 12.7353 18.8234 12.49 18.894 12.1691L19.529 9.2106C19.6231 8.81896 19.4067 8.64438 19.0586 8.64438C18.6338 8.667 18.2292 8.83333 17.9108 9.11623C17.8708 9.15165 17.8387 9.19522 17.8167 9.24403C17.7948 9.29284 17.7834 9.34578 17.7834 9.39934C17.7834 9.45289 17.7948 9.50583 17.8167 9.55465C17.8387 9.60346 17.8708 9.64702 17.9108 9.68245C18.0049 9.59751 18.0661 9.55977 18.1131 9.55977C18.1601 9.55977 18.2589 9.64942 18.2166 9.81457L17.7462 11.919C17.7132 12.07 17.6897 12.2257 17.6709 12.3909C17.4198 12.7168 17.0613 12.9426 16.6595 13.0279C16.4572 13.0515 16.3067 12.9429 16.3349 12.6409L16.5654 10.2345C16.6925 9.0077 15.9962 8.7765 15.5399 8.81896C14.9472 8.88502 14.4909 9.38518 14.1287 10.0458C14.1338 9.91724 14.1116 9.78909 14.0637 9.66976C14.0158 9.55044 13.9432 9.44265 13.8508 9.35349C13.7584 9.26433 13.6481 9.19583 13.5274 9.1525C13.4066 9.10916 13.2781 9.09198 13.1503 9.10207C12.8404 9.17458 12.5524 9.32093 12.3109 9.52874C12.0693 9.73654 11.8812 9.99967 11.7626 10.2959L11.8096 9.824C11.8566 9.42765 11.6261 9.27666 11.2592 9.31912C10.8167 9.379 10.4099 9.59474 10.1114 9.92781C10.0759 9.96766 10.0492 10.0146 10.0332 10.0656C10.0171 10.1166 10.0121 10.1704 10.0183 10.2234C10.0245 10.2765 10.0419 10.3277 10.0693 10.3735C10.0967 10.4193 10.1335 10.4588 10.1773 10.4893C10.2619 10.3997 10.3184 10.3478 10.3654 10.343C10.4125 10.3383 10.5207 10.4185 10.4972 10.5884L10.1161 14.6038C10.263 14.6722 10.4254 14.6999 10.5865 14.6841C10.7848 14.6749 10.9732 14.5946 11.1174 14.4577C11.2616 14.3209 11.352 14.1366 11.3721 13.9385L11.6544 10.9564C11.7437 10.7906 11.8692 10.6472 12.0215 10.5369C12.1738 10.4266 12.349 10.3523 12.534 10.3194C12.868 10.2817 12.8774 10.5601 12.8445 10.8951L12.5199 14.3254C12.6664 14.3947 12.8296 14.4209 12.9903 14.4009C13.188 14.3938 13.3763 14.3146 13.52 14.1782C13.6638 14.0419 13.753 13.8577 13.7712 13.6601L14.1146 10.6309C14.2037 10.4808 14.3244 10.3519 14.4682 10.2534C14.612 10.1548 14.7754 10.0888 14.9472 10.0599C15.2812 10.0175 15.3047 10.2959 15.2624 10.6309L15.0554 12.7117C14.9378 13.9385 15.5258 14.1273 15.9962 14.0706C16.6518 13.9389 17.2304 13.5565 17.6098 13.0043C17.6083 13.1267 17.6319 13.2481 17.6792 13.3609C17.7265 13.4738 17.7965 13.5756 17.8847 13.6602C17.973 13.7447 18.0776 13.8101 18.1922 13.8523C18.3068 13.8945 18.4287 13.9126 18.5506 13.9055C18.8278 13.8784 19.0954 13.7887 19.3332 13.6433C19.5711 13.4978 19.7731 13.3004 19.9242 13.0656C19.8395 13.344 19.7783 13.5988 19.7078 13.8442C18.0096 14.6086 16.6125 15.222 16.6125 16.529C16.6065 16.6971 16.6352 16.8646 16.6968 17.021C16.7583 17.1774 16.8514 17.3195 16.9702 17.4382C17.0889 17.5569 17.2309 17.6497 17.3871 17.7108C17.5433 17.772 17.7103 17.8001 17.8779 17.7935C19.7031 17.7935 20.4604 15.7693 20.9308 13.8583C21.3848 13.6431 21.8219 13.3938 22.2386 13.1128L22.0457 13.7026C22.1814 13.8085 22.3448 13.8724 22.5161 13.8866C22.712 13.9281 22.9163 13.8957 23.0899 13.7956C23.2635 13.6955 23.3941 13.5347 23.457 13.344L24.3978 10.5129C24.5201 10.3661 24.6747 10.2497 24.8493 10.1728C25.0239 10.0959 25.2139 10.0605 25.4044 10.0694C25.7431 10.1071 25.6914 10.3808 25.5832 10.7016L24.4636 13.9668C24.6003 14.0717 24.763 14.137 24.934 14.1556C25.1305 14.1957 25.3348 14.1622 25.5082 14.0613C25.6816 13.9604 25.8121 13.7992 25.8749 13.6082L26.8157 10.7111C26.9373 10.5861 27.0842 10.4886 27.2465 10.4251C27.4087 10.3616 27.5826 10.3337 27.7565 10.343C28.0905 10.3855 28.0482 10.6592 27.9306 10.9753L27.2861 12.9571C26.8956 14.1226 27.4084 14.4387 27.9164 14.5C28.4746 14.531 29.0258 14.364 29.4735 14.0282C29.5205 14.6573 29.5441 15.299 29.5441 15.9533C29.5448 17.8379 29.3445 19.7171 28.9466 21.5589C27.7293 21.9601 26.4633 22.1934 25.1834 22.2525C24.7639 21.2212 24.0477 20.3386 23.1261 19.7173C22.2045 19.096 21.1193 18.7642 20.0088 18.7642C18.8984 18.7642 17.8132 19.096 16.8916 19.7173C15.9699 20.3386 15.2537 21.2212 14.8343 22.2525C1.88394 21.5212 1.97332 6.76642 7.9146 5.45939C9.73744 5.0651 11.5791 4.7643 13.4325 4.55816C13.6366 3.73521 14.0224 2.96875 14.5614 2.3154C15.1004 1.66205 15.7789 1.13848 16.5466 0.783364C17.6267 0.267618 18.8079 0 20.0041 0C21.2004 0 22.3816 0.267618 23.4617 0.783364C24.2299 1.13705 24.9086 1.66024 25.447 2.31387C25.9854 2.9675 26.3697 3.73469 26.5711 4.55816L26.9897 4.60535ZM29.1301 11.2584L28.4903 13.1458C28.3963 13.4337 28.4903 13.5705 28.7208 13.5941C28.964 13.6121 29.2075 13.5649 29.4265 13.4572C29.3606 12.7117 29.2618 11.9709 29.1301 11.2443V11.2584ZM20.7003 35.6342C19.9039 36.3423 19.065 37.001 18.1884 37.6065C18.1667 37.4898 18.1557 37.3713 18.1554 37.2526C18.1554 35.7144 18.7623 33.4778 20.4651 33.4778C20.6896 33.4759 20.9127 33.5142 21.1237 33.5911L20.7003 35.6342ZM16.1609 4.32224C18.7204 4.15709 21.2879 4.15709 23.8474 4.32224C23.494 3.74968 22.9825 3.29235 22.375 3.00578C21.6311 2.66389 20.8224 2.48692 20.0041 2.48692C19.1859 2.48692 18.3772 2.66389 17.6333 3.00578C17.0258 3.29235 16.5143 3.74968 16.1609 4.32224ZM17.8779 16.8782C17.7623 16.8653 17.6555 16.81 17.5782 16.7229C17.5009 16.6357 17.4585 16.523 17.4592 16.4063C17.4592 15.623 18.2966 15.1276 19.5196 14.5189C18.9928 16.1751 18.5788 16.8782 17.8779 16.8782ZM18.941 22.4177C18.941 23.5124 19.9101 24.6212 20.9591 25.4469C21.0773 25.0992 21.1361 24.7338 21.1331 24.3664C21.1332 24.2275 21.1238 24.0888 21.1049 23.9512C21.0287 23.9491 20.953 23.9647 20.8836 23.9966C20.8143 24.0285 20.7532 24.0759 20.7051 24.1352C20.3758 23.7105 20.7333 23.1915 21.4906 23.1915C22.248 23.1915 22.7984 23.4935 23.3723 23.1915C23.6733 23.5831 23.3252 24.2249 22.6855 24.2249C22.3312 24.1918 21.9812 24.1223 21.6412 24.0172C21.6819 24.2288 21.704 24.4435 21.707 24.659C21.7113 25.0658 21.6494 25.4706 21.5236 25.8575C22.0219 26.2197 22.5789 26.4926 23.17 26.6643C23.17 27.4806 22.6996 27.8675 22.375 27.759C21.8468 27.5579 21.3544 27.2727 20.9167 26.9144C20.6671 27.177 20.3672 27.3864 20.035 27.5299C19.7028 27.6734 19.3451 27.7481 18.9834 27.7496C17.6709 27.7496 17.0359 26.8766 17.0359 25.9613C17.0369 25.5206 17.1812 25.0924 17.447 24.7415C17.7127 24.3907 18.0853 24.1364 18.5082 24.0172C18.2594 23.5267 18.1228 22.9867 18.1084 22.4365C18.1084 22.219 18.1511 22.0037 18.2341 21.8027C18.3171 21.6018 18.4387 21.4192 18.592 21.2654C18.7453 21.1116 18.9273 20.9897 19.1277 20.9064C19.328 20.8232 19.5427 20.7804 19.7595 20.7804C20.7003 20.7804 21.1708 21.3088 21.1708 22.0543C21.1708 22.6017 20.9403 22.8801 20.4557 22.8801C20.3428 22.8727 20.2341 22.8345 20.1412 22.7697C20.0483 22.7048 19.9749 22.6157 19.9289 22.512C20.0562 22.445 20.1632 22.3448 20.2386 22.2219C20.3139 22.099 20.3548 21.958 20.3569 21.8137C20.3548 21.739 20.3372 21.6656 20.3054 21.598C20.2737 21.5304 20.2283 21.4702 20.1722 21.421C20.1161 21.3719 20.0505 21.3348 19.9795 21.3123C19.9085 21.2897 19.8336 21.2821 19.7595 21.2899C19.2891 21.2899 18.9457 21.6297 18.9457 22.4177H18.941ZM19.148 26.9144C19.0043 26.9198 18.8611 26.8943 18.7281 26.8396C18.5951 26.7848 18.4753 26.7022 18.3768 26.5971C18.2783 26.4921 18.2034 26.367 18.1571 26.2305C18.1108 26.094 18.0942 25.9491 18.1084 25.8055C18.1069 25.5489 18.1658 25.2955 18.2802 25.066C18.3946 24.8364 18.5614 24.6372 18.767 24.4844C19.204 25.2008 19.7392 25.852 20.3569 26.419C20.0333 26.7352 19.5998 26.9129 19.148 26.9144Z" fill="white"/>
<path d="M57.47 19H59.01V13.42H61.14V12H55.34V13.42H57.47V19ZM65.2844 15.7L63.3844 12H61.6644L64.4644 17.24C64.1844 17.67 63.8644 17.8 63.5844 17.8C63.3144 17.8 63.0344 17.74 62.7544 17.57L62.1544 18.7C62.5944 18.95 63.0644 19.11 63.6644 19.11C64.6444 19.11 65.3444 18.63 65.9544 17.41L68.6444 12H66.9744L65.2844 15.7ZM71.2981 19H72.8381V13.42H74.9681V12H69.1681V13.42H71.2981V19ZM85.1805 12H83.7505L80.6705 16.59V12H79.1505V19H80.6005L83.6605 14.41V19H85.1805V12ZM91.4934 19H93.0334V13.42H95.1634V12H89.3634V13.42H91.4934V19ZM95.7478 19H97.3178L97.9578 17.43H100.918L101.558 19H103.168L100.168 11.95H98.7478L95.7478 19ZM98.5078 16.07L99.4378 13.8L100.368 16.07H98.5078ZM104.248 19H105.758V14.46L107.708 17.42H107.748L109.718 14.43V19H111.248V12H109.588L107.748 14.96L105.908 12H104.248V19ZM115.588 16.61H123.568V15.19H115.588V16.61ZM57.47 32H59.01V26.42H61.14V25H55.34V26.42H57.47V32ZM62.3244 32H65.6544C67.2344 32 68.2744 31.36 68.2744 30.08C68.2744 29.12 67.7744 28.65 66.9644 28.34C67.4644 28.06 67.8844 27.62 67.8844 26.83C67.8844 26.33 67.7244 25.94 67.4044 25.62C67.0044 25.22 66.3744 25 65.5744 25H62.3244V32ZM63.8244 27.83V26.35H65.3444C65.9944 26.35 66.3544 26.61 66.3544 27.07C66.3544 27.61 65.9244 27.83 65.2444 27.83H63.8244ZM63.8244 30.65V29.11H65.6044C66.3944 29.11 66.7444 29.4 66.7444 29.87C66.7444 30.41 66.3344 30.65 65.6544 30.65H63.8244ZM72.9412 32.12C75.1012 32.12 76.6712 30.49 76.6712 28.5C76.6712 26.49 75.1212 24.88 72.9612 24.88C70.8012 24.88 69.2312 26.51 69.2312 28.5C69.2312 30.51 70.7812 32.12 72.9412 32.12ZM72.9612 30.7C71.7212 30.7 70.8412 29.7 70.8412 28.5C70.8412 27.28 71.7012 26.3 72.9412 26.3C74.1812 26.3 75.0612 27.3 75.0612 28.5C75.0612 29.72 74.2012 30.7 72.9612 30.7ZM84.0673 25H82.6373L79.5573 29.59V25H78.0373V32H79.4873L82.5473 27.41V32H84.0673V25ZM81.0773 24.47C81.9973 24.47 82.6173 23.91 82.7573 22.95L81.8673 22.79C81.7373 23.2 81.4973 23.46 81.0773 23.46C80.6573 23.46 80.4173 23.2 80.2873 22.79L79.3973 22.95C79.5373 23.91 80.1573 24.47 81.0773 24.47ZM90.2902 26.39H93.6402V25H88.7502V32H90.2902V26.39ZM100.757 25H99.3267L96.2467 29.59V25H94.7267V32H96.1767L99.2367 27.41V32H100.757V25ZM101.702 33.46H103.092L103.192 32H107.572V33.46H108.862L109.062 30.61H108.222V25H103.132V25.82C103.132 28.21 102.882 29.4 102.362 30.61H101.702V33.46ZM106.682 26.39V30.61H103.982C104.382 29.64 104.612 28.58 104.612 27.1V26.39H106.682ZM113.135 32H114.675V26.39H117.435V32H118.975V25H113.135V32ZM124.054 32.12C126.214 32.12 127.784 30.49 127.784 28.5C127.784 26.49 126.234 24.88 124.074 24.88C121.914 24.88 120.344 26.51 120.344 28.5C120.344 30.51 121.894 32.12 124.054 32.12ZM124.074 30.7C122.834 30.7 121.954 29.7 121.954 28.5C121.954 27.28 122.814 26.3 124.054 26.3C125.294 26.3 126.174 27.3 126.174 28.5C126.174 29.72 125.314 30.7 124.074 30.7ZM133.689 26.39H137.039V25H132.149V32H133.689V26.39ZM141.525 32.12C143.685 32.12 145.255 30.49 145.255 28.5C145.255 26.49 143.705 24.88 141.545 24.88C139.385 24.88 137.815 26.51 137.815 28.5C137.815 30.51 139.365 32.12 141.525 32.12ZM141.545 30.7C140.305 30.7 139.425 29.7 139.425 28.5C139.425 27.28 140.285 26.3 141.525 26.3C142.765 26.3 143.645 27.3 143.645 28.5C143.645 29.72 142.785 30.7 141.545 30.7ZM146.621 32H148.161V29.9H149.331C150.901 29.9 152.161 29.06 152.161 27.44C152.161 25.99 151.151 25 149.481 25H146.621V32ZM148.161 28.53V26.39H149.351C150.121 26.39 150.601 26.76 150.601 27.45C150.601 28.07 150.151 28.53 149.381 28.53H148.161ZM152.701 32H154.271L154.911 30.43H157.871L158.511 32H160.121L157.121 24.95H155.701L152.701 32ZM155.461 29.07L156.391 26.8L157.321 29.07H155.461ZM161.201 32H162.711V27.46L164.661 30.42H164.701L166.671 27.43V32H168.201V25H166.541L164.701 27.96L162.861 25H161.201V32Z" fill="white"/>
</svg>
