<svg width="12" height="12" viewBox="0 0 12 12" fill="none" xmlns="http://www.w3.org/2000/svg">
<path d="M10.8966 0H1.40448C1.18108 0 1 0.181078 1 0.404484V2.11685C1 2.21756 1.03762 2.31464 1.10545 2.38921L4.70788 6.34543V11.5955C4.70788 11.7396 4.78459 11.873 4.90932 11.9454C4.97202 11.9818 5.04226 12 5.11238 12C5.18155 12 5.25085 11.9822 5.31301 11.9466L7.3894 10.7601C7.51547 10.6881 7.59326 10.5541 7.59326 10.409V6.34543L11.1957 2.38921C11.2636 2.31466 11.3011 2.21758 11.3011 2.11685V0.404484C11.3011 0.181078 11.12 0 10.8966 0ZM10.4921 1.96031L6.88969 5.91639C6.82175 5.99082 6.78425 6.08802 6.78425 6.18875V10.1742L5.51684 10.8985V6.18875C5.51684 6.08804 5.47923 5.99082 5.4114 5.91639L1.80899 1.96031V0.808991H10.4921V1.96031Z" fill="white" stroke="white" stroke-width="0.3"/>
</svg>
