<svg width="10" height="7" viewBox="0 0 10 7" fill="none" xmlns="http://www.w3.org/2000/svg">
<path d="M9.48073 7H2.51945C2.23254 7 2 6.77617 2 6.5C2 6.22383 2.23254 6 2.51945 6H9.48055C9.76746 6 10 6.22383 10 6.5C10 6.77617 9.76763 7 9.48073 7Z" fill="#2CB049"/>
<path d="M9.48073 4H2.51945C2.23254 4 2 3.77617 2 3.5C2 3.22383 2.23254 3 2.51945 3H9.48055C9.76746 3 10 3.22383 10 3.5C10.0002 3.77617 9.76763 4 9.48073 4Z" fill="#2CB049"/>
<path d="M9.48073 1H2.51945C2.23254 1 2 0.776167 2 0.5C2 0.223833 2.23254 0 2.51945 0H9.48055C9.76746 0 10 0.223833 10 0.5C10 0.776167 9.76763 1 9.48073 1Z" fill="#2CB049"/>
<path d="M0.5 1C0.776142 1 0.999999 0.776142 0.999999 0.5C0.999999 0.223858 0.776142 0 0.5 0C0.223857 0 0 0.223858 0 0.5C0 0.776142 0.223857 1 0.5 1Z" fill="#2CB049"/>
<path d="M0.5 4C0.776142 4 1 3.77614 1 3.5C1 3.22386 0.776142 3 0.5 3C0.223858 3 0 3.22386 0 3.5C0 3.77614 0.223858 4 0.5 4Z" fill="#2CB049"/>
<path d="M0.5 7C0.776142 7 1 6.77614 1 6.5C1 6.22386 0.776142 6 0.5 6C0.223858 6 0 6.22386 0 6.5C0 6.77614 0.223858 7 0.5 7Z" fill="#2CB049"/>
</svg>
