<svg width="13" height="14" viewBox="0 0 13 14" fill="none" xmlns="http://www.w3.org/2000/svg">
<path fill-rule="evenodd" clip-rule="evenodd" d="M2.75 13.75C3.56639 13.75 4.26091 13.2283 4.51831 12.5H9.9375C11.4908 12.5 12.75 11.2408 12.75 9.68755C12.75 8.13425 11.4908 6.87505 9.9375 6.87505H3.0625C2.19956 6.87505 1.5 6.17549 1.5 5.31255C1.5 4.4496 2.19956 3.75005 3.0625 3.75005H4.99112L4.18306 4.55811L5.06694 5.44199L7.38388 3.12505L5.06694 0.808105L4.18306 1.69199L4.99112 2.50005H3.0625C1.5092 2.50005 0.25 3.75925 0.25 5.31255C0.25 6.86585 1.5092 8.12505 3.0625 8.12505H9.9375C10.8004 8.12505 11.5 8.8246 11.5 9.68755C11.5 10.5505 10.8004 11.25 9.9375 11.25H4.51831C4.26091 10.5218 3.56639 10 2.75 10C1.71447 10 0.875 10.8395 0.875 11.875C0.875 12.9106 1.71447 13.75 2.75 13.75ZM2.125 11.875C2.125 11.5299 2.40482 11.25 2.75 11.25C3.09518 11.25 3.375 11.5299 3.375 11.875C3.375 12.2202 3.09518 12.5 2.75 12.5C2.40482 12.5 2.125 12.2202 2.125 11.875ZM10.25 1.25003C11.2855 1.25003 12.125 2.0895 12.125 3.12503C12.125 4.16056 11.2855 5.00003 10.25 5.00003C9.21447 5.00003 8.375 4.16056 8.375 3.12503C8.375 2.0895 9.21447 1.25003 10.25 1.25003ZM9.625 3.12503C9.625 2.77985 9.90482 2.50003 10.25 2.50003C10.5952 2.50003 10.875 2.77985 10.875 3.12503C10.875 3.47021 10.5952 3.75003 10.25 3.75003C9.90482 3.75003 9.625 3.47021 9.625 3.12503Z" fill="white"/>
</svg>
