<svg width="13" height="13" viewBox="0 0 13 13" fill="none" xmlns="http://www.w3.org/2000/svg">
<path fill-rule="evenodd" clip-rule="evenodd" d="M5.25 10.25C2.48858 10.25 0.25 8.01142 0.25 5.25C0.25 2.48858 2.48858 0.25 5.25 0.25C8.01142 0.25 10.25 2.48858 10.25 5.25C10.25 6.40545 9.85807 7.46936 9.1999 8.31604L12.5669 11.6831L11.683 12.5669L8.31602 9.19992C7.46934 9.85808 6.40544 10.25 5.25 10.25ZM8.99999 5.24999C8.99999 7.32106 7.32106 8.99999 5.24999 8.99999C3.17892 8.99999 1.49999 7.32106 1.49999 5.24999C1.49999 3.17892 3.17892 1.49999 5.24999 1.49999C7.32106 1.49999 8.99999 3.17892 8.99999 5.24999Z" fill="#444444"/>
</svg>
