<svg width="35" height="35" viewBox="0 0 35 35" fill="none" xmlns="http://www.w3.org/2000/svg">
<path fill-rule="evenodd" clip-rule="evenodd" d="M17.5 34C8.3873 34 1 26.6127 1 17.5C1 8.3873 8.3873 1 17.5 1C26.6127 1 34 8.3873 34 17.5C34 26.6127 26.6127 34 17.5 34ZM0 17.5C0 7.83502 7.83502 0 17.5 0C27.165 0 35 7.83502 35 17.5C35 27.165 27.165 35 17.5 35C7.83502 35 0 27.165 0 17.5ZM15.5991 22.7734L19.3687 17.5352L15.5991 12.2971L16.4009 11.7032L20.3843 17.2383L20.598 17.5352L20.3843 17.8322L16.4009 23.3672L15.5991 22.7734Z" fill="#A6CE38"/>
</svg>
