<svg width="35" height="35" viewBox="0 0 35 35" fill="none" xmlns="http://www.w3.org/2000/svg">
<path fill-rule="evenodd" clip-rule="evenodd" d="M17.5 34C26.6127 34 34 26.6127 34 17.5C34 8.3873 26.6127 1 17.5 1C8.3873 1 1 8.3873 1 17.5C1 26.6127 8.3873 34 17.5 34ZM35 17.5C35 7.83502 27.165 0 17.5 0C7.83502 0 0 7.83502 0 17.5C0 27.165 7.83502 35 17.5 35C27.165 35 35 27.165 35 17.5ZM19.4009 22.7734L15.6313 17.5352L19.4009 12.2971L18.5991 11.7032L14.6157 17.2383L14.402 17.5352L14.6157 17.8322L18.5991 23.3672L19.4009 22.7734Z" fill="#A6CE38"/>
</svg>
