<svg width="571" height="106" viewBox="0 0 571 106" fill="none" xmlns="http://www.w3.org/2000/svg">
<g opacity="0.2">
<path d="M30.552 103H58.488V26.68H88.728V2.19996H0.312012V26.68H30.552V103Z" fill="#DDDDDD"/>
<path d="M124.607 104.44C140.159 104.44 149.519 97.096 158.735 79.096L198.047 2.19996H167.663L146.063 49.576L123.167 2.19996H92.0625L131.519 76.648C128.495 80.104 125.183 80.968 122.735 80.968C119.711 80.968 115.247 80.104 111.359 77.512L100.415 97.672C107.183 101.704 114.959 104.44 124.607 104.44Z" fill="#DDDDDD"/>
<path d="M231.646 103H259.582V26.68H289.822V2.19996H201.406V26.68H231.646V103Z" fill="#DDDDDD"/>
<path d="M372.5 105.016L391.364 91.48L377.828 78.088C382.58 71.608 386.9 64.408 391.076 56.776L372.644 47.56C369.62 53.32 366.452 58.792 363.14 63.544L351.908 52.6C363.716 47.128 371.636 38.776 371.636 26.392C371.636 11.416 359.972 0.18396 341.684 0.18396C321.956 0.18396 310.004 12.856 310.004 27.544C310.004 34.312 312.02 40.504 316.628 47.128C302.948 53.32 296.18 62.824 296.18 75.352C296.18 93.928 311.588 104.728 332.18 104.728C343.844 104.728 353.636 100.984 362.132 94.504L372.5 105.016ZM335.924 84.136C329.012 84.136 324.116 80.104 324.116 74.2C324.116 69.88 326.276 65.992 331.316 62.968L347.876 79.816C343.988 82.408 339.956 84.136 335.924 84.136ZM338.804 40.072C335.348 35.752 333.62 32.44 333.62 28.552C333.62 22.936 336.932 19.336 341.684 19.336C346.292 19.336 349.46 22.504 349.46 27.4C349.46 33.016 346.004 36.904 338.804 40.072Z" fill="#DDDDDD"/>
<path d="M427.255 103H455.191V26.68H485.431V2.19996H397.015V26.68H427.255V103Z" fill="#DDDDDD"/>
<path d="M489.63 103H519.006L526.206 85H565.086L572.43 103H602.382L559.47 1.47996H532.542L489.63 103ZM534.414 63.256L545.79 34.6L557.022 63.256H534.414Z" fill="#DDDDDD"/>
<path d="M612.162 103H639.522V45.4L665.154 84.568H665.73L691.506 45.112V103H719.298V2.19996H689.778L665.73 41.224L641.682 2.19996H612.162V103Z" fill="#DDDDDD"/>
</g>
</svg>
