<svg width="15" height="11" viewBox="0 0 15 11" fill="none" xmlns="http://www.w3.org/2000/svg">
<path fill-rule="evenodd" clip-rule="evenodd" d="M5 3.38632L7.50002 2.13631V8.86377L5 7.61376V3.38632ZM4.22748 2.37504L8.75002 0.11377V10.8863L4.22747 8.62504H1.875C1.18464 8.62504 0.625 8.06539 0.625 7.37504V3.62504C0.625 2.93468 1.18464 2.37504 1.875 2.37504H4.22748ZM3.75 3.62504H1.875V7.37504H3.75V3.62504ZM12.2995 0.160509C13.5711 1.42552 14.375 3.35512 14.375 5.50006C14.375 7.64499 13.5711 9.57459 12.2995 10.8396L11.3145 10.0516C12.4055 9.03358 13.125 7.38267 13.125 5.50006C13.125 3.61745 12.4055 1.96653 11.3145 0.948484L12.2995 0.160509ZM11.875 5.50004C11.875 3.99338 11.2905 2.63278 10.3592 1.71267L9.37328 2.50141C10.1295 3.18236 10.625 4.26609 10.625 5.50004C10.625 6.734 10.1295 7.81772 9.37328 8.49868L10.3592 9.28742C11.2905 8.3673 11.875 7.00671 11.875 5.50004Z" fill="#A6CE38"/>
</svg>
