<svg width="27" height="22" viewBox="0 0 27 22" fill="none" xmlns="http://www.w3.org/2000/svg">
<path d="M1.03715 10.0525C0.991206 9.86827 0.987829 9.676 1.02728 9.49027C1.06673 9.30454 1.14798 9.13024 1.26485 8.9806C1.38172 8.83096 1.53114 8.70991 1.70178 8.62663C1.87242 8.54336 2.05978 8.50005 2.24965 8.5H24.0497C24.2395 8.50005 24.4269 8.54336 24.5975 8.62663C24.7682 8.70991 24.9176 8.83096 25.0345 8.9806C25.1513 9.13024 25.2326 9.30454 25.272 9.49027C25.3115 9.676 25.3081 9.86827 25.2622 10.0525L22.9984 19.1063C22.8632 19.6471 22.5511 20.1272 22.1117 20.4704C21.6724 20.8135 21.1309 20.9999 20.5734 21H5.7259C5.16842 20.9999 4.62695 20.8135 4.18757 20.4704C3.74818 20.1272 3.4361 19.6471 3.3009 19.1063L1.03715 10.0538V10.0525Z" stroke="#181818" stroke-width="2" stroke-linejoin="round"/>
<path d="M9.39966 13.5V16" stroke="#181818" stroke-width="2" stroke-linecap="round"/>
<path d="M16.8997 13.5V16" stroke="#181818" stroke-width="2" stroke-linecap="round"/>
<path d="M5.64966 8.5L10.6497 1" stroke="#181818" stroke-width="2" stroke-linecap="round"/>
<path d="M20.6497 8.5L15.6497 1" stroke="#181818" stroke-width="2" stroke-linecap="round"/>
</svg>
