<svg width="21" height="22" viewBox="0 0 21 22" fill="none" xmlns="http://www.w3.org/2000/svg">
<path d="M10.4775 11C13.239 11 15.4775 8.76142 15.4775 6C15.4775 3.23858 13.239 1 10.4775 1C7.71612 1 5.47754 3.23858 5.47754 6C5.47754 8.76142 7.71612 11 10.4775 11Z" stroke="#181818" stroke-width="2"/>
<path d="M15.4776 13H15.8296C16.5607 13.0002 17.2665 13.2674 17.8145 13.7513C18.3625 14.2352 18.7149 14.9026 18.8056 15.628L19.1966 18.752C19.2318 19.0334 19.2067 19.3191 19.123 19.5901C19.0393 19.8611 18.899 20.1112 18.7112 20.3238C18.5235 20.5364 18.2927 20.7066 18.0342 20.8232C17.7756 20.9398 17.4952 21.0001 17.2116 21H3.7436C3.45998 21.0001 3.17959 20.9398 2.92105 20.8232C2.6625 20.7066 2.4317 20.5364 2.24398 20.3238C2.05625 20.1112 1.91589 19.8611 1.8322 19.5901C1.74852 19.3191 1.72343 19.0334 1.7586 18.752L2.1486 15.628C2.2393 14.9022 2.59202 14.2346 3.14043 13.7506C3.68885 13.2667 4.39518 12.9997 5.1266 13H5.4776" stroke="#181818" stroke-width="2" stroke-linecap="round" stroke-linejoin="round"/>
</svg>
