<svg width="22" height="15" viewBox="0 0 22 15" fill="none" xmlns="http://www.w3.org/2000/svg">
<path fill-rule="evenodd" clip-rule="evenodd" d="M21.5612 7.2439C21.5612 7.03046 21.48 6.82577 21.3356 6.67484C21.1912 6.52392 20.9954 6.43913 20.7912 6.43913H2.63013L7.47646 1.37555C7.54805 1.30073 7.60484 1.2119 7.64358 1.11414C7.68233 1.01638 7.70227 0.911598 7.70227 0.805781C7.70227 0.699964 7.68233 0.595184 7.64358 0.497422C7.60484 0.39966 7.54805 0.310831 7.47646 0.236008C7.40487 0.161184 7.31988 0.101831 7.22634 0.0613365C7.1328 0.0208422 7.03255 0 6.93131 0C6.83006 0 6.72981 0.0208422 6.63627 0.0613365C6.54273 0.101831 6.45774 0.161184 6.38615 0.236008L0.226214 6.67412C0.154507 6.74888 0.0976161 6.83769 0.0587985 6.93546C0.019981 7.03323 0 7.13804 0 7.2439C0 7.34975 0.019981 7.45457 0.0587985 7.55234C0.0976161 7.65011 0.154507 7.73891 0.226214 7.81367L6.38615 14.2518C6.45774 14.3266 6.54273 14.386 6.63627 14.4265C6.72981 14.467 6.83006 14.4878 6.93131 14.4878C7.03255 14.4878 7.1328 14.467 7.22634 14.4265C7.31988 14.386 7.40487 14.3266 7.47646 14.2518C7.54805 14.177 7.60484 14.0881 7.64358 13.9904C7.68233 13.8926 7.70227 13.7878 7.70227 13.682C7.70227 13.5762 7.68233 13.4714 7.64358 13.3737C7.60484 13.2759 7.54805 13.1871 7.47646 13.1122L2.63013 8.04866H20.7912C20.9954 8.04866 21.1912 7.96387 21.3356 7.81295C21.48 7.66203 21.5612 7.45733 21.5612 7.2439Z" fill="#D8D8D8"/>
</svg>
